<?xml version="1.0" standalone="no"?>
<!DOCTYPE svg PUBLIC "-//W3C//DTD SVG 1.1//EN" "http://www.w3.org/Graphics/SVG/1.1/DTD/svg11.dtd" >
<svg xmlns="http://www.w3.org/2000/svg">
<metadata>Generated by IcoMoon</metadata>
<defs>
<font id="icomoon" horiz-adv-x="1024">
<font-face units-per-em="1024" ascent="960" descent="-64" />
<missing-glyph horiz-adv-x="1024" />
<glyph unicode="&#x20;" horiz-adv-x="512" d="" />
<glyph unicode="&#xe900;" glyph-name="content_paste" d="M810 84.667v684h-84v-128h-428v128h-84v-684h596zM512 852.667q-18 0-30-12t-12-30 12-30 30-12 30 12 12 30-12 30-30 12zM810 852.667q34 0 60-25t26-59v-684q0-34-26-59t-60-25h-596q-34 0-60 25t-26 59v684q0 34 26 59t60 25h178q14 38 46 62t74 24 74-24 46-62h178z" />
<glyph unicode="&#xe901;" glyph-name="document-file-html" d="M608 544h320.183c52.919 0 95.817-42.963 95.817-95.961v-224.078c0-53.009-42.899-95.961-95.817-95.961h-320.183v-64.295c0-34.963-28.617-63.705-63.918-63.705h-480.165c-35.408 0-63.918 28.759-63.918 64.235v735.531c0 35.488 28.693 64.235 64.088 64.235h351.912l192-224v-96zM576 128h-384.183c-52.919 0-95.817 42.963-95.817 95.961v224.078c0 53.009 42.899 95.961 95.817 95.961h384.183v64h-128.067c-35.309 0-63.933 28.37-63.933 64.189v159.811h-320.142c-17.595 0-31.858-14.568-31.858-31.855v-736.291c0-17.593 14.551-31.855 31.999-31.855h480.003c17.672 0 31.999 14.238 31.999 31.789v64.211zM416 816v-143.719c0-17.828 14.421-32.281 31.896-32.281h118.503l-150.398 176zM192.235 512c-35.476 0-64.235-28.806-64.235-63.745v-224.511c0-35.205 28.747-63.745 64.235-63.745h735.531c35.476 0 64.235 28.806 64.235 63.745v224.511c0 35.205-28.747 63.745-64.235 63.745h-735.531zM928 256v-32h-160v224h32v-192h128zM448 416v-192h32v192h64v32h-160v-32h64zM320 352v96h32v-224h-32v96h-96v-96h-32v224h32v-96h96zM656 352l-48 96h-32v-224h32v160l32-64h32l32 64v-160h32v224h-32l-48-96z" />
<glyph unicode="&#xe902;" glyph-name="document-file-html1" d="M608 128v-64.082c0-35.408-28.617-63.918-63.918-63.918h-480.165c-35.408 0-63.918 28.759-63.918 64.235v735.531c0 35.488 28.776 64.235 64.273 64.235h319.727v-192.061c0-35.565 28.739-63.939 64.189-63.939h159.811v-64h-415.781c-53.14 0-96.219-42.952-96.219-95.961v-224.078c0-52.998 42.752-95.961 96.219-95.961h415.781zM416 864v-191.906c0-17.725 14.431-32.094 31.705-32.094h160.295l-192 224zM192.235 512h735.531c35.488 0 64.235-28.539 64.235-63.745v-224.511c0-34.939-28.759-63.745-64.235-63.745h-735.531c-35.488 0-64.235 28.539-64.235 63.745v224.511c0 34.939 28.759 63.745 64.235 63.745zM928 256h-128v192h-32v-224h160v32zM448 416v-192h32v192h64v32h-160v-32h64zM320 352h-96v96h-32v-224h32v96h96v-96h32v224h-32v-96zM656 352l-48 96h-32v-224h32v160l32-64h32l32 64v-160h32v224h-32l-48-96z" />
<glyph unicode="&#xe903;" glyph-name="adobecreativecloud" d="M1024 465.109v-34.261c-0.341-1.877-0.725-3.712-0.939-5.547-1.707-14.933-2.859-29.909-5.291-44.715-8.49-50.523-26.062-95.677-51.082-135.698l0.906 1.554c-37.541-61.607-90.387-110.551-153.36-142.371l-2.16-0.989c-34.836-17.943-75.389-30.647-118.265-35.8l-1.713-0.168c-9.259-1.109-18.56-2.091-27.819-3.115h-359.723c-1.835 0.341-3.627 0.853-5.461 1.024-38.284 2.4-73.85 11.555-106.349 26.286l1.901-0.771c-72.405 32.213-126.421 84.48-161.749 156.331-14.806 29.385-25.347 63.555-29.719 99.626l-0.147 1.494-3.029 25.685v33.28c0.341 1.835 0.853 3.669 0.981 5.547 1.937 33.838 8.985 65.466 20.392 94.922l-0.723-2.122c30.549 80.213 83.883 139.776 159.488 178.304 36.336 18.777 79.007 30.673 124.23 32.827l0.698 0.026c4.786 0.24 10.394 0.377 16.033 0.377 16.966 0 33.643-1.238 49.946-3.629l-1.851 0.223c0.215-0.020 0.464-0.032 0.717-0.032 2.055 0 3.93 0.773 5.349 2.044l-0.008-0.007c29.644 30.923 64.298 56.747 102.712 76.231l2.163 0.995c34.997 18.014 75.732 30.788 118.795 36.010l1.738 0.172c9.984 1.152 19.925 2.133 29.867 3.157h30.72c1.963-0.299 4.011-0.683 5.973-0.896 15.232-1.835 30.507-2.987 45.568-5.547 49.486-8.694 93.599-26.395 132.528-51.454l-1.413 0.852c61.183-38.566 109.585-92.365 140.622-156.169l0.989-2.252c17.712-35.512 30.229-76.805 35.251-120.381l0.162-1.731c1.109-9.771 2.048-19.541 3.072-29.312zM451.413 686.976c0.64-0.853 0.811-1.237 1.067-1.365 21.035-10.539 41.173-22.955 60.16-36.992 1.195-0.853 4.181-0.512 5.632 0.427 52.139 33.579 108.672 45.184 169.387 34.219 59.52-10.709 107.947-40.96 144.939-89.259 41.899-54.613 57.899-116.48 46.336-185.173-7.765-46.080-25.941-87.467-56.747-122.069-56.32-63.147-126.848-89.259-209.835-78.208-51.072 6.827-95.147 29.227-131.669 66.731-46.848 48.128-94.037 95.915-141.013 143.915-6.272 6.4-13.227 11.52-22.229 12.672-1.417 0.202-3.054 0.317-4.718 0.317-14.231 0-26.492-8.435-32.056-20.577l-0.090-0.22c-6.059-12.8-5.291-27.307 7.893-40.448 52.352-52.309 104.277-105.045 156.587-157.44 8.96-8.96 18.56-17.28 28.757-24.832 38.229-28.203 81.323-43.819 128-50.091 36.608-4.949 72.96-3.84 109.013 4.352 68.779 15.744 125.781 51.413 170.667 106.539 35.376 42.941 59.48 96.403 67.079 155.043l0.163 1.544c1.796 12.578 2.822 27.103 2.822 41.869 0 20.807-2.037 41.138-5.921 60.806l0.326-1.981c-10.411 54.187-32.981 102.741-69.12 144.085-69.035 78.763-155.861 113.92-259.157 106.112-41.806-3.54-80.11-15.606-114.141-34.447l1.459 0.741c-20.342-10.857-37.89-22.891-53.958-36.61l0.412 0.343zM426.155 136.96c-1.786 1.664-3.175 2.972-4.559 4.286l0.292-0.275c-21.376 20.565-42.923 40.96-64.085 61.824-3.168 3.601-7.785 5.861-12.93 5.861-0.254 0-0.507-0.006-0.759-0.016l0.036 0.001c-21.419-0.512-42.88-0.597-64 4.267-105.003 24.107-165.973 140.203-127.275 242.347 30.507 80.597 115.029 129.621 198.357 114.517 37.333-6.784 70.144-22.869 97.024-51.072 32.853-34.475 66.645-67.925 99.84-102.016 7.509-7.765 16.213-11.307 26.667-9.813 13.483 1.963 24.277 8.533 29.141 22.016 4.779 13.227 2.475 25.813-7.381 36.011-34.816 35.84-68.821 72.619-105.045 106.965-70.272 66.603-153.088 86.443-244.736 58.112-123.221-38.101-195.371-167.509-167.211-295.211 25.685-116.352 125.739-197.973 242.816-198.101h98.091c1.621 0 3.243 0.171 5.717 0.299z" />
<glyph unicode="&#xe904;" glyph-name="airplayaudio" d="M508.083 952.166c-122.769-0.969-245.615-45.837-343.253-135.334-208.282-190.925-220.425-515.465-29.495-723.75 8.678-10.411 19.085-19.085 29.5-29.5 5.205-3.469 12.207-3.541 17.417 1.668l22.583 26.082c5.205 5.205 5.205 13.875 0 19.085-182.251 168.363-194.432 454.746-24.333 637.001 170.099 182.246 454.75 194.347 637.001 24.247 182.246-170.099 194.347-454.665 24.247-636.915-8.678-8.678-15.573-17.391-24.247-24.333-5.205-5.205-5.205-13.875 0-19.085l22.583-26.082c5.205-5.205 13.875-5.137 19.081-1.664 208.286 192.661 220.429 515.46 29.5 723.746-102.353 110.652-241.442 165.931-380.582 164.834zM524.582 802.082c-93.726 3.038-188.732-29.525-262.498-98.082-147.537-137.122-156.203-367.966-19.085-515.499 5.205-5.205 10.389-12.126 17.335-17.335 5.205-5.205 13.875-5.205 19.081 0l22.583 26.001c5.205 5.205 5.205 13.875 0 19.085-60.749 57.276-97.165 138.867-97.165 223.915 0 168.363 137.054 305.502 305.417 305.502s305.498-138.803 305.498-307.17c0-83.311-34.748-164.971-95.497-222.251-5.205-5.205-5.205-13.875 0-19.081l22.583-26.001c5.205-5.205 13.875-6.955 19.081-1.749 147.537 138.859 154.539 369.715 17.417 517.248-68.561 73.771-161.024 112.384-254.75 115.418zM513.25 660.582c-56.41 0.87-113.237-19.891-157.5-62.417-88.521-85.047-90.219-223.893-5.167-312.414l5.163-5.248c5.21-5.21 13.879-5.21 19.089 0l22.583 26.078c5.205 5.205 5.205 13.879 0 19.085-29.508 29.508-46.835 71.108-46.835 114.5 0 0.129-0.001 0.283-0.001 0.436 0 87.941 71.291 159.232 159.232 159.232 0.153 0 0.306 0 0.459-0.001h-0.024c0.129 0 0.283 0.001 0.436 0.001 87.941 0 159.232-71.291 159.232-159.232 0-0.153 0-0.306-0.001-0.459v0.024c0-43.392-17.34-83.255-48.585-114.5-5.205-5.205-5.205-13.875 0-19.085l22.583-26.082c5.205-5.205 13.875-5.205 19.085 0 86.784 85.052 90.3 223.898 5.248 312.418-42.526 44.258-98.59 66.799-154.999 67.665zM513.502 330.167c-5.858 0.213-11.959-1.911-17.169-6.251l-1.664-1.749-305.502-343.667c-6.942-8.678-6.929-20.821 1.749-29.5 3.473-3.473 8.614-5.248 12.083-5.248h612.749c10.415 0 20.834 8.683 20.834 20.83 0 5.205-1.694 10.445-5.163 13.918l-302.084 343.667c-4.343 5.205-9.975 7.782-15.834 8z" />
<glyph unicode="&#xe905;" glyph-name="amazon" d="M1.92 191.147c3.072 4.949 7.979 5.291 14.848 0.939 155.136-90.027 324.011-135.083 506.453-135.083 121.685 0 241.835 22.741 360.405 68.053l13.44 5.973c5.888 2.56 9.984 4.267 12.501 5.547 9.643 3.755 16.64 1.963 22.4-5.547 5.12-7.424 3.84-14.336-5.12-20.48-10.923-8.107-25.6-17.493-42.923-27.904-53.077-31.701-112.64-56.149-178.56-73.643-65.28-17.323-129.92-26.027-192.683-26.027-96.64 0-188.16 16.896-274.56 50.645-86.187 33.877-162.987 81.493-231.68 142.933-4.267 3.157-6.4 6.4-6.4 9.387 0 2.005 0.853 3.84 1.877 5.205zM282.027 456.448c0 42.88 10.539 79.488 31.701 109.952 21.12 30.293 49.92 53.333 87.040 68.907 33.963 14.293 74.923 24.533 124.245 30.72 16.64 1.963 44.075 4.395 81.92 7.424v15.787c0 39.68-4.48 66.475-12.8 80-12.885 18.347-33.28 27.733-61.44 27.733h-7.765c-20.48-1.963-38.229-8.363-53.163-19.627-14.933-11.52-24.533-26.88-28.8-46.763-2.56-12.8-8.789-19.84-18.56-21.76l-107.52 13.44c-10.581 2.56-15.872 7.68-15.872 16.64 0 1.963 0.299 3.84 0.939 6.4 10.539 55.040 36.48 96 77.653 122.88 41.643 26.283 89.6 41.6 144.64 44.8h23.040c70.4 0 126.165-18.517 165.888-55.040 5.76-6.4 11.52-12.8 17.28-20.48 5.12-7.040 9.557-13.397 12.075-19.2 3.2-5.717 6.4-14.080 8.32-24.32 2.56-10.837 4.48-17.92 5.76-21.76 1.28-4.437 2.645-12.8 3.243-26.24 0.427-13.355 0.853-21.035 0.853-23.595v-225.28c0-16.043 2.56-30.72 7.040-44.203 4.48-13.355 8.96-23.040 13.44-28.757l21.76-28.757c3.84-5.803 5.803-10.923 5.803-15.36 0-5.12-2.56-9.643-7.68-13.397-51.2-44.8-79.36-69.12-83.755-72.96-7.040-5.76-16-6.4-26.88-1.92-8.32 7.083-16 14.165-22.443 21.163l-13.227 14.805c-2.56 3.157-7.083 8.96-13.525 17.92l-12.8 18.56c-34.56-37.803-68.395-61.44-102.4-71.040-21.077-6.4-46.635-9.685-78.080-9.685-47.36 0-87.040 14.635-117.76 44.117-30.72 29.44-46.080 71.040-46.080 125.44zM442.155 475.136c0-24.149 5.973-43.52 18.133-58.197 12.16-14.507 28.8-21.845 49.28-21.845 1.92 0 4.523 0.299 8.32 0.853 3.84 0.683 5.717 0.981 7.083 0.981 26.197 6.827 46.080 23.595 60.757 50.261 7.040 11.947 12.16 24.747 15.36 38.827 3.84 13.653 5.12 25.173 5.76 34.133 0.64 8.32 0.64 23.040 0.64 42.88v23.040c-35.84 0-63.317-2.56-81.92-7.68-54.4-15.36-81.92-49.92-81.92-103.68zM833.067 175.317c1.28 2.56 3.2 4.693 5.632 7.253 15.445 10.368 30.464 17.493 44.8 21.333 23.467 5.675 46.507 9.472 68.779 10.24 5.973 0.512 11.947 0 17.493-1.28 27.733-2.56 44.8-7.168 50.005-14.080 2.688-3.84 3.84-9.728 3.84-16.64v-6.4c0-21.76-5.973-47.36-17.707-76.8-11.861-29.44-28.331-53.248-49.323-71.68-3.115-2.56-5.973-3.84-8.405-3.84-1.28 0-2.56 0-3.84 0.512-3.84 1.877-4.565 5.12-2.731 10.24 23.040 53.76 34.389 91.435 34.389 112.64 0 6.4-1.28 11.52-3.712 14.677-6.187 7.083-23.467 10.965-52.224 10.965-10.368 0-22.741-0.683-37.12-1.963-15.488-1.92-29.867-3.84-42.667-5.76-3.84 0-6.315 0.597-7.68 1.877-1.28 1.28-1.536 2.005-0.853 3.285 0 0.725 0.256 1.28 0.853 2.688z" />
<glyph unicode="&#xe906;" glyph-name="amazonaws" d="M288.555 531.797c0-12.629 1.365-22.827 3.755-30.293 2.731-7.509 6.144-15.701 10.923-24.576 1.707-2.688 2.389-5.419 2.389-7.808 0-3.413-2.048-6.827-6.485-10.24l-21.461-14.293c-2.469-1.798-5.527-2.928-8.841-3.071l-0.034-0.001c-3.413 0-6.827 1.707-10.197 4.779-4.424 4.748-8.462 9.98-11.989 15.566l-0.256 0.434c-3.12 5.186-6.647 11.771-9.896 18.517l-0.686 1.579c-26.539-31.317-59.947-46.976-100.139-46.976-28.587 0-51.413 8.149-68.096 24.491-16.683 16.384-25.173 38.144-25.173 65.408 0 28.928 10.197 52.48 30.976 70.144 20.779 17.707 48.341 26.581 83.413 26.581 11.605 0 23.509-1.024 36.096-2.731 12.629-1.707 25.6-4.437 39.168-7.509v24.875c0 25.899-5.419 43.947-16 54.485-10.88 10.581-29.269 15.659-55.467 15.659-11.947 0-24.235-1.323-36.821-4.395s-24.875-6.827-36.779-11.605c-3.219-1.499-7.18-3.007-11.256-4.255l-0.691-0.182c-1.601-0.535-3.452-0.887-5.371-0.98l-0.048-0.002c-4.779 0-7.168 3.413-7.168 10.539v16.683c0 5.461 0.683 9.557 2.389 11.947 2.55 3.050 5.749 5.47 9.393 7.061l0.164 0.064c11.904 6.144 26.197 11.264 42.88 15.36 15.371 4.098 33.019 6.452 51.216 6.452 0.685 0 1.368-0.003 2.051-0.010l-0.105 0.001c40.533 0 70.144-9.216 89.216-27.605 18.731-18.347 28.245-46.293 28.245-83.755zM150.315 480c11.221 0 22.784 2.048 35.072 6.144 12.245 4.096 23.168 11.563 32.341 21.76 5.461 6.485 9.557 13.653 11.605 21.845 2.005 8.149 3.413 18.048 3.413 29.611v14.293c-8.452 2.192-19.091 4.225-29.921 5.648l-1.439 0.154c-9.595 1.287-20.702 2.031-31.979 2.048h-0.021c-22.827 0-39.509-4.437-50.773-13.653-11.221-9.173-16.64-22.101-16.64-39.125 0-16 4.053-27.947 12.587-36.096 8.149-8.533 20.053-12.629 35.755-12.629zM423.808 443.221c-6.144 0-10.24 1.024-12.971 3.413-2.731 2.048-5.12 6.827-7.168 13.269l-80 263.296c-1.452 3.971-2.534 8.596-3.049 13.391l-0.023 0.263c0 5.461 2.731 8.533 8.149 8.533h33.408c6.443 0 10.88-1.067 13.227-3.413 2.773-2.048 4.821-6.827 6.827-13.312l57.259-225.451 53.12 225.451c1.707 6.827 3.755 11.264 6.443 13.312 3.485 2.169 7.715 3.456 12.245 3.456 0.495 0 0.987-0.015 1.475-0.046l-0.067 0.003h27.221c6.485 0 10.923-1.067 13.653-3.413 2.688-2.048 5.12-6.827 6.443-13.312l53.803-228.181 58.923 228.181c2.048 6.827 4.437 11.264 6.827 13.312 3.367 2.168 7.479 3.456 11.892 3.456 0.485 0 0.966-0.016 1.443-0.046l-0.065 0.003h31.701c5.419 0 8.533-2.773 8.533-8.533 0-1.707-0.384-3.413-0.725-5.461-0.606-3.259-1.433-6.122-2.503-8.864l0.113 0.33-82.048-263.253c-2.048-6.827-4.437-11.221-7.168-13.269-3.322-2.16-7.386-3.445-11.75-3.445-0.414 0-0.826 0.012-1.235 0.034l0.057-0.003h-29.312c-6.443 0-10.88 1.024-13.653 3.413-2.688 2.389-5.077 6.827-6.4 13.653l-52.821 219.648-52.48-219.307c-1.707-6.827-3.712-11.264-6.4-13.653-2.773-2.389-7.552-3.413-13.653-3.413zM861.397 434.048c-17.707 0-35.413 2.048-52.437 6.101-17.024 4.096-30.293 8.533-39.168 13.653-5.461 3.029-9.173 6.443-10.539 9.515-1.274 2.811-2.026 6.094-2.048 9.549v17.373c0 7.125 2.731 10.539 7.808 10.539 2.048 0 4.096-0.341 6.144-1.024s5.12-2.048 8.533-3.413c11.563-5.12 24.149-9.173 37.461-11.904 13.611-2.731 26.88-4.096 40.533-4.096 21.419 0 38.144 3.755 49.707 11.264 10.692 6.54 17.719 18.153 17.719 31.406 0 0.329-0.004 0.657-0.013 0.983l0.001-0.048c0.009 0.281 0.013 0.612 0.013 0.944 0 8.892-3.5 16.965-9.198 22.919l0.012-0.012c-6.144 6.443-17.749 12.245-34.432 17.707l-49.365 15.36c-24.875 7.808-43.264 19.371-54.485 34.688-10.567 13.499-16.976 30.696-17.067 49.387v0.021c0 14.293 3.115 26.88 9.216 37.803 6.144 10.88 14.293 20.437 24.533 27.904 10.24 7.851 21.76 13.653 35.413 17.707 13.653 4.096 27.947 5.803 42.923 5.803 7.467 0 15.317-0.341 22.827-1.365 7.808-1.024 14.933-2.389 22.101-3.755 6.827-1.707 13.312-3.413 19.413-5.419 6.144-2.048 10.923-4.096 14.336-6.144 4.103-2.094 7.526-4.972 10.188-8.462l0.052-0.072c1.918-2.853 3.061-6.366 3.061-10.146 0-0.378-0.011-0.754-0.034-1.126l0.002 0.051v-16c0-7.168-2.731-10.923-7.851-10.923-4.817 0.566-9.191 2.016-13.109 4.188l0.181-0.092c-18.528 8.395-40.174 13.288-62.964 13.288-0.844 0-1.687-0.007-2.528-0.020l0.127 0.002c-19.413 0-34.773-3.029-45.312-9.515-10.581-6.485-16-16.341-16-30.293 0-9.557 3.413-17.749 10.24-24.192 6.784-6.485 19.371-12.971 37.419-18.773l48.384-15.275c24.491-7.851 42.24-18.773 52.779-32.725s15.659-29.952 15.659-47.659c0-14.635-3.072-27.947-8.832-39.509-6.144-11.605-14.336-21.803-24.875-29.995-10.581-8.533-23.168-14.635-37.803-19.072-15.36-4.736-31.317-7.125-48.725-7.125zM925.781 268.501c-112.043-82.773-274.859-126.677-414.805-126.677-196.181 0-372.907 72.533-506.453 193.109-10.539 9.515-1.024 22.485 11.605 14.976 144.384-83.755 322.517-134.528 506.752-134.528 124.331 0 260.864 25.899 386.56 79.019 18.731 8.533 34.731-12.245 16.341-25.899zM972.459 321.664c-14.336 18.347-94.72 8.832-131.157 4.395-10.88-1.365-12.587 8.192-2.688 15.36 64 44.928 169.259 32 181.504 17.024 12.245-15.36-3.413-120.576-63.36-170.965-9.173-7.851-18.048-3.755-13.952 6.443 13.653 33.707 43.947 109.653 29.653 127.744z" />
<glyph unicode="&#xe907;" glyph-name="apache" d="M675.243 960c-6.377-0.008-12.33-1.817-17.379-4.946l0.142 0.082c-16.043-9.472-42.752-36.309-74.581-75.221l-6.656-8.192c-8.448-10.496-17.195-21.845-26.197-33.835-27.1-35.74-55.463-77.084-81.941-119.72l-4.075-7.043-2.816-4.608c-21.663-34.401-45.909-77.426-68.338-121.532l-4.579-9.924c-14.769-28.655-30.582-64.636-44.453-101.567l-2.481-7.532c-3.883-10.709-7.424-21.035-10.667-30.976-2.645-8.491-5.205-16.981-7.595-25.429-5.675-19.925-10.581-39.851-14.592-59.648l0.043-0.085-0.555-2.603c-4.318-20.299-7.842-44.995-9.811-70.127l-0.13-2.065-0.213-2.517c-11.947 19.157-43.904 37.803-43.861 37.632 22.912-33.195 40.277-66.133 42.837-98.475-12.245-2.517-29.056 1.109-48.469 8.277 20.224-18.603 35.413-23.723 41.344-25.088-18.603-1.152-37.931-13.952-57.429-28.629 28.501 11.648 51.541 16.213 68.053 12.501-16.305-40.601-43.11-121.322-68.114-202.83l-10.521-39.858c7.414 2.156 13.174 7.775 15.486 14.942l0.045 0.162c4.693 15.744 35.712 118.869 84.352 254.464l4.181 11.648 1.195 3.243c5.12 14.208 10.453 28.715 15.957 43.52l3.797 10.112 0.085 0.213-25.771 50.901 25.771-50.859c5.077 13.525 10.24 27.221 15.573 41.088l2.219 5.803 2.261 5.845 1.749 4.437-1.749-4.48-2.261-5.803-2.219-5.803c-5.333-13.867-10.496-27.563-15.573-41.088l4.523-8.875 4.011 0.427 0.427 1.195c6.528 17.792 12.971 35.157 19.371 52.053l0.213 0.597c3.55 12.81-3.065-4.616-9.573-22.093l-9.969-30.557-0.427-1.195-2.859-7.808c-5.035-13.867-10.112-27.947-15.189-42.368l-0.213-0.64-2.176-6.101c-3.413-9.728-6.4-18.475-13.184-38.357 11.221-5.12 20.224-18.603 28.757-33.877-0.88 16.757-8.347 31.615-19.837 42.156l-0.045 0.041c55.296-2.475 102.955 11.477 127.616 51.925 2.219 3.627 4.224 7.381 6.016 11.435-11.179-14.208-25.088-20.224-51.2-18.731 38.485 17.237 57.771 33.749 74.837 61.141 3.563 5.624 7.549 12.647 11.238 19.847l0.751 1.614c-33.664-34.56-72.619-44.373-113.707-36.907h-0.085l-1.749 0.299c36.821 4.565 85.76 32.085 117.419 66.048 14.592 15.659 27.819 34.133 40.064 55.723 9.131 16.085 17.664 33.92 25.813 53.675 7.125 17.237 13.952 35.925 20.565 56.192-10.011-5.241-21.64-9.136-33.923-11.054l-0.637-0.082c-0.702-0.165-2.705-0.494-4.718-0.795l-1.17-0.144 0.085 0.043 0.128 0.043c1.92 0.299 3.797 0.555 5.675 0.896 1.92 0.341 3.84 0.683 5.717 1.109l-5.675-1.024-5.632-0.981c34.219 13.227 55.808 38.699 71.509 69.845-11.799-8.13-25.608-14.377-40.466-17.923l-0.835-0.168c-1.547-0.365-4.021-0.827-6.518-1.221l-0.778-0.101-1.835-0.256 0.043 0.043 0.384 0.043 1.365 0.213c2.997 0.462 5.267 0.894 7.515 1.388l-0.816-0.15 0.597 0.128-0.683-0.128-8.277-1.408c11.861 4.992 21.888 10.539 30.592 17.109 6.494 5.079 12.235 10.55 17.405 16.528l0.131 0.155c3.413 4.053 6.613 8.448 9.6 13.227l2.731 4.437 3.285 6.485c4.851 9.424 10.139 21.395 14.817 33.667l0.885 2.642 1.323 3.755c1.195 3.627 2.219 6.869 2.987 9.685 1.152 4.224 1.877 7.595 2.261 10.069-1.174-0.948-2.484-1.851-3.861-2.651l-0.149-0.080c-10.368-6.187-28.16-11.819-42.496-14.464l-4.224-0.469-0.043-0.043-96.725-10.624-0.512-1.024-3.285-6.741-10.027-20.821c3.371 7.083 6.699 14.037 10.027 20.821l3.285 6.741c0.171 0.384 0.384 0.725 0.512 1.109l-3.584-0.384-2.859 5.632c0.608 2.371-4.776-8.307-10.080-19.031l-6.048-13.524-8.704-18.091c-8.209-15.135-23.832-48.893-38.854-82.976l-7.738-19.68c-5.030-8.402-20.561-45.025-35.602-81.901l-10.521-29.161 3.669 9.216c24.173 62.161 38.466 95.741 53.175 129.098l-10.721-27.252c22.888 54.069 38.512 87.843 54.715 121.284l-8.123-18.586 8.704 18.091c5.035 10.411 10.112 20.693 15.275 30.891l0.853 1.621c8.149 16.128 16.384 32 24.704 47.616 8.875 16.64 17.92 32.896 27.008 48.683 12.812 22.51 22.302 38.099 32.083 53.486l-3.411-5.742 1.707 2.731c9.557 15.104 19.2 29.653 28.885 43.563 20.936 30.229 42.267 56.666 65.34 81.46l-0.401-0.436-2.475-2.645c-6.827-7.509-27.477-31.616-58.667-79.488 30.037 1.493 76.16 7.637 113.792 14.080 11.179 62.72-10.965 91.392-10.965 91.392s-18.944 30.677-44.203 30.976zM604.928 639.701c28.16 12.971 40.789 24.704 52.992 41.643 3.243 4.693 6.528 9.557 9.771 14.635 9.941 15.488 19.669 32.597 28.373 49.579 8.405 16.384 15.829 32.64 21.504 47.317 2.762 6.642 5.675 15.158 8.119 23.87l0.415 1.73c1.749 6.699 3.157 13.099 4.224 19.157-37.675-6.4-83.797-12.587-113.835-14.037-7.177-10.601-16.994-26.223-26.477-42.068l-3.219-5.804c-8.704-14.72-18.005-30.848-27.733-48.512-12.175-20.836-29.139-52.976-45.297-85.586l-5.604-12.505zM759.723 866.219v-2.816h6.656v-18.731h3.072v18.731h6.699v2.816zM779.477 866.219v-21.589h2.816v17.109l7.339-14.848h1.963l7.339 14.848v-17.109h2.816v21.589h-3.712l-7.424-15.061-7.467 15.061zM608.469 640.043l-4.352-0.683 0.043 0.043zM604.629 639.531l-0.213-0.085zM487.723 586.539l-4.523-9.685-5.675-12.245c-5.053-8.725-18.245-38.002-31.022-67.502l-8.274-21.458c-4.822-8.279-19.186-42.712-33.080-77.385l-9.544-26.978c-6.315-16.128-12.715-32.64-19.157-49.621l-0.213-0.597c38.563 104.72 72.709 185.092 109.861 263.767l-8.571-20.183 5.675 12.245z" />
<glyph unicode="&#xe908;" glyph-name="bing" d="M153.813 960l204.587-71.936v-719.957l288.128 166.187-141.227 66.347-89.173 221.867 453.973-159.488v-231.893l-511.573-295.125-204.672 113.92z" />
<glyph unicode="&#xe909;" glyph-name="cakephp" d="M0 368v-159.787c0-88.192 229.12-159.701 512-159.701v159.701c-282.88 0-512 71.68-512 159.701zM912.384 268.459l-400.384 99.541v-159.787l400.384-99.541c69.803 27.307 111.616 61.867 111.616 99.541v159.787c0-37.632-41.813-72.192-111.616-99.541zM512 527.659v-159.659c-282.752 0-512 71.552-512 159.744v160.043c0 88.064 229.12 159.701 512 159.701 282.667 0 512-71.68 512-159.744v-160c0-37.675-41.813-72.107-111.616-99.584l-400.384 99.627z" />
<glyph unicode="&#xe90a;" glyph-name="cloudbees" d="M151.467 686.507c0 51.2 31.147 97.28 80.213 119.467 17.827 8.089 38.656 12.803 60.587 12.803 33.584 0 64.586-11.055 89.566-29.724l-0.393 0.281 107.52 100.267c-52.969 43.778-121.575 70.333-196.382 70.333-57.16 0-110.699-15.504-156.641-42.535l1.45 0.789c-82.135-46.18-136.713-132.769-136.713-232.106 0-26.769 3.963-52.611 11.335-76.974l-0.489 1.88c39.991-116.105 148.298-198.032 275.74-198.032 2.060 0 4.116 0.021 6.166 0.064l-0.306-0.005h110.080v140.8h-110.080c-78.080 0.853-141.653 60.16-141.653 132.693zM727.893 484.693h-110.080v-140.8h110.080c78.080 0 141.653-59.733 141.653-132.267 0-73.387-63.573-132.267-141.653-132.267s-141.653 58.453-141.653 131.413v476.16c0 67.413-26.88 132.693-75.093 183.040l-107.52-101.12c20.053-22.613 31.147-52.053 31.147-82.347v-475.307c0-151.040 131.413-273.493 293.12-273.493 162.133 0 293.12 122.453 293.12 273.493s-130.987 273.493-293.12 273.493z" />
<glyph unicode="&#xe90b;" glyph-name="codecov" d="M512.299 939.52c-282.283-0.213-512.085-228.309-512.299-508.544v-1.28l87.125-50.816 1.195 0.811c39.281 27.243 87.96 43.521 140.442 43.521 0.246 0 0.492 0 0.738-0.001h-0.038c15.829 0 31.317-1.451 46.336-4.267l-1.536 0.256c47.862-8.714 89.631-30.377 122.774-61.194l-0.15 0.138-0.171 0.128 14.933-13.909 8.448 18.517c8.192 17.92 17.664 34.731 28.16 50.048 4.224 6.144 8.875 12.373 14.165 19.029l8.747 10.965-10.752 9.003c-45.084 37.989-100.51 65.148-161.45 76.747l-2.219 0.351-2.219 0.341c-19.626 3.738-42.2 5.876-65.273 5.876-38.861 0-76.305-6.065-111.438-17.3l2.588 0.715 2.603 0.683c41.429 181.632 201.131 308.224 389.675 308.352 0.401 0.001 0.875 0.002 1.35 0.002 109.398 0 208.468-44.224 280.306-115.77l-0.013 0.013c51.714-51.018 89.311-116.221 106.482-189.299l0.526-2.658c-31.799 10.258-68.384 16.171-106.35 16.171-0.081 0-0.162 0-0.244 0h-6.558c-15.189-0.256-29.867-1.408-44.245-3.328l1.92 0.213-1.792-0.256c-7.476-0.951-13.144-1.85-18.765-2.885l2.125 0.325c-2.432-0.427-4.864-0.939-7.253-1.408-7.92-1.562-13.552-2.877-19.128-4.328l2.403 0.531-5.888-1.493c-9.712-2.566-16.587-4.669-23.38-6.952l2.772 0.808-1.237-0.427c-15.147-5.12-30.251-11.435-44.843-18.731l-1.152-0.597c-6.485-3.243-13.013-6.827-20.011-10.923l-1.536-0.939c-34.906-21.026-64.617-46.566-89.493-76.292l-0.449-0.551-0.469-0.555-3.2-3.925c-5.035-6.144-10.331-13.134-15.369-20.319l-0.759-1.142c-3.755-5.547-7.552-11.477-12.288-19.285l-2.56-4.437c-2.497-4.123-5.817-10.156-8.978-16.285l-1.006-2.147-0.683-1.237c-7.253-14.549-13.525-29.781-18.773-45.355l-0.725-2.261c-11.167-32.407-17.614-69.751-17.614-108.6 0-2.576 0.028-5.145 0.085-7.707l-0.007 0.382v0.299l0.043-4.779c0.256-6.741 0.555-12.587 0.981-18.389l-0.085 1.579c0.657-7.942 1.293-13.988 2.036-20l-0.244 2.421 0.213-1.792 0.555-4.395c0.768-5.419 1.621-10.752 2.645-16.128 10.283-54.016 36.053-108.032 74.453-156.16l1.749-2.176 1.792 2.133c15.317 18.091 53.291 75.52 56.533 109.952l0.043 0.64-0.299 0.555c-17.201 32.032-27.307 70.085-27.307 110.499 0 0.078 0 0.155 0 0.233v0.030c0 128.683 101.163 235.563 230.272 243.285l8.491 0.299c1.717 0.042 3.74 0.066 5.768 0.066 53.13 0 102.434-16.376 143.142-44.356l-0.857 0.556 1.195-0.811 87.083 50.645v1.28c0.002 0.478 0.003 1.043 0.003 1.609 0 140.027-57.305 266.669-149.744 357.755l-0.062 0.060c-92.274 91.813-219.504 148.569-359.99 148.569-0.701 0-1.402-0.001-2.102-0.004h0.108z" />
<glyph unicode="&#xe90c;" glyph-name="codefactor" d="M229.12 846.933c0.001-0.128 0.001-0.279 0.001-0.43 0-61.91-49.946-112.154-111.741-112.636h-0.046c-62.026 0.242-112.214 50.58-112.214 112.639 0 0.15 0 0.3 0.001 0.451v-0.023c-0.001 0.127-0.001 0.277-0.001 0.427 0 62.060 50.188 112.397 112.191 112.639h0.023c61.842-0.483 111.787-50.727 111.787-112.637 0-0.151 0-0.302-0.001-0.453v0.023zM229.12 448c0.001-0.128 0.001-0.279 0.001-0.43 0-61.91-49.946-112.154-111.741-112.636h-0.046c-62.026 0.242-112.214 50.58-112.214 112.639 0 0.15 0 0.3 0.001 0.451v-0.023c-0.001 0.127-0.001 0.277-0.001 0.427 0 62.060 50.188 112.397 112.191 112.639h0.023c61.842-0.483 111.787-50.727 111.787-112.637 0-0.151 0-0.302-0.001-0.453v0.023zM229.12 49.067c0.001-0.128 0.001-0.279 0.001-0.43 0-61.91-49.946-112.154-111.741-112.636h-0.046c-62.026 0.242-112.214 50.58-112.214 112.639 0 0.15 0 0.3 0.001 0.451v-0.023c-0.001 0.127-0.001 0.277-0.001 0.427 0 62.060 50.188 112.397 112.191 112.639h0.023c61.842-0.483 111.787-50.727 111.787-112.637 0-0.151 0-0.302-0.001-0.453v0.023zM482.56 960c-61.657-0.723-111.361-50.873-111.361-112.633 0-0.153 0-0.305 0.001-0.457v0.024c-0.001-0.131-0.001-0.285-0.001-0.44 0-61.61 49.463-111.666 110.844-112.626l0.090-0.001h424.107c62.026 0.242 112.214 50.58 112.214 112.639 0 0.15 0 0.3-0.001 0.451v-0.023c0.001 0.128 0.001 0.279 0.001 0.43 0 61.91-49.946 112.154-111.741 112.636h-0.046zM371.2 448c-0.001 0.128-0.001 0.279-0.001 0.43 0 61.91 49.946 112.154 111.741 112.636h242.393c61.471-0.961 110.934-51.017 110.934-112.627 0-0.155 0-0.309-0.001-0.463v0.024c0.001-0.131 0.001-0.285 0.001-0.44 0-61.61-49.463-111.666-110.844-112.626l-0.090-0.001h-243.2c-61.471 0.961-110.934 51.017-110.934 112.627 0 0.155 0 0.309 0.001 0.463v-0.024z" />
<glyph unicode="&#xe90d;" glyph-name="digitalocean" d="M35.669 133.76h-0.171v127.36h127.36v-127.36h152.021v197.76h197.76v-197.12c210.219 0.256 372.48 208.341 292.352 429.483-29.781 81.92-95.147 147.2-177.067 176.896-221.44 80.341-429.653-82.347-429.653-292.779h-198.272c0 335.189 323.84 596.309 675.157 486.613 153.6-48 275.456-169.899 323.413-323.413 109.653-351.36-151.296-675.2-486.571-675.2v197.76h-197.248v-151.893h-151.893v151.893h-127.317z" />
<glyph unicode="&#xe90e;" glyph-name="django" d="M475.563 960h167.424v-775.040c-85.888-16.299-148.949-22.827-217.429-22.827-204.416 0-310.955 92.416-310.955 269.653 0 170.709 113.067 281.6 288.128 281.6 27.179 0 47.829-2.176 72.832-8.704zM475.563 569.899c-15.859 5.539-34.142 8.738-53.171 8.738-1.182 0-2.361-0.012-3.538-0.037l0.176 0.003c-84.821 0-133.717-52.181-133.717-143.531 0-89.173 46.763-138.069 132.651-138.069 18.475 0 33.707 1.067 57.6 4.352zM909.397 701.44v-388.139c0-133.717-9.771-197.888-39.125-253.312-27.179-53.291-63.061-86.997-137.003-123.947l-155.477 73.941c73.941 34.773 109.824 65.237 132.651 112 23.936 47.829 31.531 103.296 31.531 248.96v330.539zM741.973 959.104h167.424v-171.776h-167.424z" />
<glyph unicode="&#xe90f;" glyph-name="docker" d="M205.653 222.933c-29.184 0-55.637 23.893-55.637 52.907s23.893 53.035 55.68 53.035c31.915 0 55.893-23.893 55.893-52.992s-26.539-52.907-55.936-52.949zM888.832 511.488c-5.76 42.325-32 76.8-66.56 103.253l-13.44 10.667-10.837-13.227c-21.077-23.893-29.44-66.261-26.88-97.92 2.56-23.979 10.24-47.787 23.637-66.304-10.837-5.547-24.235-10.667-34.56-16.085-24.32-7.979-47.957-10.667-71.68-10.667h-684.373l-2.56-15.787c-5.12-50.432 2.56-103.253 23.979-151.040l10.411-18.56v-2.56c64-105.941 177.92-153.6 301.995-153.6 238.677 0 434.432 103.253 527.232 325.675 60.8-2.645 122.197 13.227 151.040 71.509l7.68 13.227-12.8 7.979c-34.56 21.077-81.92 23.893-121.6 13.227zM547.157 553.813h-103.595v-103.253h103.68v103.339zM547.157 683.648h-103.595v-103.253h103.68v103.125zM547.157 816.085h-103.595v-103.253h103.68v103.253zM673.877 553.813h-102.997v-103.253h103.253v103.339zM289.963 553.813h-102.955v-103.253h103.339v103.339zM419.243 553.813h-102.4v-103.253h102.997v103.339zM161.963 553.813h-102.229v-103.253h103.595v103.339zM419.243 683.648h-102.4v-103.253h102.997v103.125zM289.323 683.648h-102.144v-103.253h102.955v103.125z" />
<glyph unicode="&#xe910;" glyph-name="figma" d="M512 448c0 94.257 76.41 170.667 170.667 170.667s170.667-76.41 170.667-170.667v0c0-94.257-76.41-170.667-170.667-170.667s-170.667 76.41-170.667 170.667v0zM170.667 106.667c0 94.257 76.41 170.667 170.667 170.667v0h170.667v-170.667c0-94.257-76.41-170.667-170.667-170.667s-170.667 76.41-170.667 170.667v0zM512 960v-341.333h170.667c94.257 0 170.667 76.41 170.667 170.667s-76.41 170.667-170.667 170.667v0zM170.667 789.333c0-94.257 76.41-170.667 170.667-170.667v0h170.667v341.333h-170.667c-94.257 0-170.667-76.41-170.667-170.667v0zM170.667 448c0-94.257 76.41-170.667 170.667-170.667v0h170.667v341.333h-170.667c-94.257 0-170.667-76.41-170.667-170.667v0z" />
<glyph unicode="&#xe911;" glyph-name="flask" d="M306.005 78.72c-38.997 30.72-80.64 60.16-109.056 101.547-59.819 73.045-105.899 157.611-137.387 246.485-19.029 57.813-25.6 119.808-50.091 175.36-25.685 40.277 4.395 84.395 48.555 97.237 19.627 3.755 54.272 22.315 12.501 9.045-37.461-27.477-41.088 24.96-2.688 28.245 26.24 3.499 35.84 24.96 26.88 44.245-28.117 18.347 68.267 38.528 19.755 65.877-50.432 54.528 70.699 65.024 40.832 3.157-7.125-47.573 84.651 8.704 63.36-46.208 21.632-26.411 81.067-6.016 79.573-43.051 31.573-2.133 42.368-28.672 71.979-30.72 30.72-13.867 86.315-24.747 96.725-59.349-30.421-24.107-100.907 49.749-104.277-16.939 9.173-98.56 6.827-200.064 42.88-293.888 17.067-56.832 58.411-101.547 95.744-145.835 35.712-43.349 84.096-73.813 133.419-99.541 43.264-20.395 89.899-33.92 137.088-42.411 19.115 14.635 52.907 68.992 82.688 46.080 1.408-25.771-59.221-53.888-2.859-51.029 33.109 9.984 56.064-25.6 83.328 6.485 25.088-29.739 104.363 19.029 86.485-41.813-24.149-15.531-59.392-6.144-83.584-27.563-39.893 19.925-71.68-17.835-115.84-13.056-49.067-8.789-98.944-12.373-148.651-12.416-81.579 6.443-164.907 9.173-242.517 37.547-43.733 12.715-86.357 37.632-124.843 62.507zM374.912 48.853c42.667-18.432 84.437-37.888 131.2-43.776 74.24-10.283 150.912-26.197 225.408-11.691-33.707 15.232-68.608-5.973-102.187 10.88-40.277-8.661-83.499 2.219-124.459 7.552-46.592 20.736-96.853 34.987-140.459 61.952-54.485 19.883 28.16-25.515 42.923-29.227 34.048-19.328-37.461 9.941-47.573 17.963-28.501 16-32.171 12.672-2.816-3.584 5.931-3.456 11.776-7.083 17.963-10.069zM293.675 106.283c41.387-15.317-0.171 29.099-19.157 26.539-8.405 14.549-32.085 23.765-15.36 31.573-30.080-10.411-31.488 39.68-45.653 32.555-31.787 10.027-12.373 45.611-50.219 67.413-3.456 23.040-37.632 43.008-48.555 77.739-4.821 17.749-38.613 68.821-17.835 21.333 17.664-45.739 48.768-84.907 74.667-124.032 20.053-37.248 43.819-76.203 80.427-99.413 12.373-11.861 24.235-29.995 41.685-33.707zM174.507 237.141c1.408 6.229 7.552-13.525 0 0zM343.211 87.936c9.173 4.096-13.184 5.12 0 0zM365.653 79.744c-2.304 11.307-10.24-6.315 0 0zM393.813 68.011c13.355 12.757-20.651 8.021 0 0zM441.941 41.131c8.149 12.032-26.027 4.565 0 0zM349.44 105.685c20.779 13.44-26.88 0.171 0 0zM370.517 95.189c-0.597 7.083-7.509-3.2 0 0zM475.904 29.397c16.981-10.667 98.987-23.467 47.616-4.395-8.576-1.792-95.189 24.491-47.616 4.395zM308.608 159.701c-1.664 7.125-26.283 7.893 0 0zM357.675 131.115c12.8 8.917-26.496 6.827 0 0zM398.933 105.813c18.347 6.912-29.739 6.955 0 0zM288.64 181.461c19.883-15.275 80.213-1.963 30.464 9.088-22.613 12.075-73.685 20.309-38.912-7.253zM426.88 97.067c8.277 14.080-34.731 8.064 0 0zM384.896 130.475c48.64-13.781-40.875 30.72-11.989 5.035l6.4-2.901zM469.12 81.792c46.037-0.427-41.6 6.315 0 0zM270.933 208.085c-1.792 8.576-11.349-0.725 0 0zM546.987 38.101c1.237 15.488-15.019-11.52 0 0zM349.483 159.957c-2.773 8.149-14.379 0.341 0 0zM275.285 213.461c26.453 1.579-36.181 11.648 0 0zM187.392 270.293c-3.285 12.672-28.757 22.784 0 0zM418.133 123.733c-4.864 5.547-2.304-1.195 0 0zM561.749 35.627c-0.427 8.405-7.808-3.2 0 0zM405.419 136.875c2.56 10.88-22.571 3.285 0 0zM298.453 204.8c19.627 2.091-31.531 13.269 0 0zM479.445 92.288c30.635 12.16-29.867 5.973 0 0zM385.28 156.16c35.328-4.523-42.027 24.021-7.723 2.56zM508.032 80.725c32.981 19.712 22.101-46.165 55.936-5.547 33.365 24.32-28.8-30.165 12.331-4.395 29.739 19.925 73.685-9.387 101.419-18.987 19.968 0.981 39.381-17.28 59.861-6.187 39.381 10.667-77.056 15.787-46.507 34.56-36.053-10.453-62.72 12.544-80.427 35.627-40.448 9.344-87.211 29.995-107.392 65.792-8.192 13.44 11.904-1.877-7.083 20.053-24.363 21.675-36.523 46.293-52.907 72.619-19.499 10.411-21.76 41.088-23.765 1.024 0.171 25.301-23.595 42.325-29.397 35.243-0.085 24.363 25.429 12.16 7.552 30.165-3.84 25.259-16.512 51.584-20.309 80.085-5.888 13.739-0.853 43.136-20.181 12.032-7.040-32.853-2.347 40.405 8.619 16.213 14.379 24.704-5.12 21.76-5.973 18.347 9.387 20.821 5.973 50.347-2.432 39.083 4.992 22.059 7.893 81.152-7.467 70.656 9.301 23.040 17.664 105.515-22.784 74.069-16.384-0.213-44.715-5.973-58.155-12.629 42.069-23.168-4.224-8.363-21.333-4.693-2.219-21.419-19.2-12.16-40.363-12.373 33.835-4.181-16.469-34.56-35.883-22.784-25.173-12.032 21.76-42.112 0.512-51.413 2.603-13.995-38.613 5.077-35.413-27.307-24.448 10.283-3.328-38.4 8.917-21.931 41.6-11.264 29.269-36.949 30.336-61.312-6.784-14.208-33.493 33.408-5.973 31.189-21.675 35.285-23.979 12.757-42.027-3.627-4.224-1.195 46.037-23.339 14.507-34.261 27.733-4.267 28.501-28.587 34.133-43.947 16.683-17.365 13.269 19.2 33.237-1.707-12.629 18.603-66.859 52.395-23.211 41.557-0.213 18.731-7.893 33.835 5.504 33.451 13.227 23.979-13.867-59.179 16-28.672 8.235 3.627 10.283 24.021 25.173-1.92 21.547-21.248 7.765-36.608-22.656-17.195 5.419-18.475 40.704-25.045 34.091-53.973 7.040-25.387 16.853-16.043 25.429-14.592 6.741-24.661 10.539-6.528 10.88 5.248 30.763-6.613 23.552-24.789 33.195-37.547 21.205-9.557-30.379 64.939 6.059 22.443 38.315-34.603 14.379-49.067-20.053-43.52 21.76 1.749 28.8-29.44 56.021-28.331 24.832-11.819 41.643-57.173-1.152-38.272-14.848 13.355-67.371 29.867-24.448 4.437 39.637-18.347 71.083-29.355 109.312-52.352 27.307-19.541 39.168-41.899 49.493-46.336-22.955-10.965-69.248 8.789-34.859 14.848-21.461 3.883-45.568 14.72-25.045-11.947 17.493-14.635 61.867-13.056 69.845-14.72-6.784-14.848-18.347-16.043 0.256-17.195-20.736-11.093 6.656-12.8 8.576-19.072zM465.621 200.533c-12.629 13.227-15.915 37.973-2.261 16.427 6.997-2.816 22.4-40.405 2.261-16.427zM603.776 112.768c7.893 0.469 0.256-5.973 0 0zM445.653 232.917c-0.469 19.968 4.565-15.403 0 0zM431.915 251.392c-15.872 30.677 20.053-8.704 0 0zM265.515 366.251c9.301 2.517 4.565-15.957 0 0zM397.952 294.485c5.717 21.504 6.741-18.091 0 0zM304.384 359.552c-6.613 11.861 13.781-11.136 0 0zM384.683 333.781c-15.019 33.707 10.667 18.432 3.328-5.547zM246.187 426.155c-6.741 11.093-17.835 43.52-14.251 53.419 3.243-16.128 34.304-69.419 15.232-22.101-21.077 39.68 25.173-12.885 29.952-22.784 2.176-9.813-13.013 2.688-2.731-20.395-18.773 26.325-11.093-14.507-28.203 11.861zM203.392 455.637c1.749 25.728 9.813-17.621 0 0zM222.635 449.024c9.173 19.413 15.573-27.051 0 0zM176.341 484.864c-15.957 15.787-27.477 30.421 0.725 9.813 10.88-0.427-24.149 33.195 2.603 10.667 28.16-5.12 13.909-46.165-3.328-20.48zM200.661 485.504c9.259 9.173 4.907-9.045 0 0zM215.595 480.683c-13.995 26.325 17.067-11.008 0 0zM185.856 509.141c-46.336 41.216 58.24-21.589 7.552-7.68zM318.592 432c-20.053 12.032-5.291 84.651 1.536 34.987 19.499 6.315-1.067-25.643 13.44-25.344-2.261-20.181-8.789-27.435-14.976-9.643zM367.659 402.987c2.005 21.888 4.181-14.933 0 0zM359.125 411.435c2.261 9.344 0.256-11.008 0 0zM194.987 522.667c-29.739 41.088 86.485-41.515 19.072-10.411-7.040 1.835-15.531 2.517-19.072 10.411zM289.536 472.533c-2.816 34.56 6.272-5.717 0 0zM361.301 426.496c5.547 19.712 0.427-13.013 0 0zM199.509 538.368c17.707 3.755 73.301-31.104 22.229-9.984-5.675 6.315-17.792 3.413-22.229 9.984zM351.403 462.635c1.877 35.371 10.581 21.12 0.085-5.035zM212.693 550.656c7.211 10.581-19.157 47.787 3.797 13.355 9.899-7.893 28.672-13.227 12.075-16.512 26.069-22.997-6.357-6.229-15.872 3.157zM343.893 473.685c4.992 40.277 4.395-23.595 0 0zM197.632 587.861c5.504 2.347 2.901-7.339 0 0zM231.851 567.467c8.789 18.517 16.213-20.608 0 0zM328.405 513.749c-0.085 7.125 1.835-10.325 0 0zM322.816 526.123c-13.397 33.109 12.459-17.493 0 0zM314.581 547.84c-2.261 13.653 7.68-17.195 0 0zM327.979 569.6c-9.216 16.213 11.605 71.424 13.909 37.163-9.685-26.667-2.773-41.6 3.968-5.803 12.501 28.16-2.688-55.595-17.877-31.36zM341.717 651.691c4.011 4.907 0.896-5.931 0 0zM318.763 198.869c-5.461 4.736 0.683-3.029 0 0zM366.123 174.933c26.283-6.784 26.155 4.096 2.347 7.296-12.8 11.947-53.163 24.533-17.024 1.493 2.389-6.059 9.984-5.931 14.677-8.789zM272.597 237.013c14.507-10.795 54.613-30.677 20.651-4.096 11.477 13.312-21.931 20.395-10.837 29.269-28.16 17.237-22.187 15.701-2.475 15.189-33.877 15.104 4.864 13.995 3.029 21.76-13.056 2.56-64.853 22.997-34.347-1.707-30.976 15.787-7.381-5.888-16.725-3.584-31.701 8.619 28.16-24.107-5.035-16 18.133-14.379 48.896-36.864 7.68-15.232-5.461-7.808 29.483-19.627 38.059-25.6zM322.091 208.555c60.203-19.371-29.483 23.723 0 0zM575.531 55.040c0.853 11.947-8.192-10.24 0 0zM601.643 44.075c13.867 13.44 0.555-21.461 22.997 3.285 0.256 17.707-0.683 28.16-25.813 6.656-6.912-3.84-9.984-20.181 2.816-9.941zM188.075 303.787c-4.267 16.768-29.867 16.64 0 0zM215.893 285.525c-10.325 17.152-36.864 15.531 0 0zM374.187 190.080c15.445-13.696 70.955-10.069 18.773-1.707-7.765 11.477-49.109 8.704-18.773 1.707zM591.701 55.723c23.808 19.968-23.040-8.875 0 0zM641.195 21.76c0.128 6.4-10.24-2.816 0 0zM641.237 30.72c26.325 27.904-25.515-1.664 0 0zM119.68 361.045c-22.443 32-13.952 46.421-35.627 72.533-4.096 20.053-37.12 65.408-17.067 17.323 18.347-28.117 23.808-71.637 52.693-89.856zM632.96 39.595c48.469 31.317-19.84 13.653 0 0zM669.952 25.088c24.32 20.821-15.36 4.352 0 0zM179.84 339.2c6.955 10.325-17.92 1.323 0 0zM662.229 35.029c23.509 15.147-5.376 12.8-4.267-1.365zM343.467 235.947c-0.853 10.24-12.416-0.853 0 0zM363.136 224.597c-6.229 12.672-9.6-2.005 0 0zM699.947 24.747c30.080 21.76-18.261 4.181-6.315-4.096zM688.427 30.293c24.491 20.565-25.899-9.088 0 0zM747.307-8.875c16.469 11.008-20.011 3.541 0 0zM194.944 346.624c22.059-4.949 88.149-54.357 49.152-3.413-19.968 5.888-7.979 54.741-28.373 46.080 13.653-22.827 11.264-32.555-17.451-18.176-36.096 17.621-20.267-8.704-13.227-15.957-9.6-2.219 12.715-8.363 9.899-8.533zM94.421 425.984c3.925 16.341-36.395 89.899-19.029 36.864 6.229-11.093 5.589-32.171 19.029-36.864zM278.912 312.235c-11.349 9.515-0.555 1.365 0 0zM306.901 305.749c0 17.28-30.933 6.997 0 0zM549.333 152.875c-4.608 11.861-18.261 0.256 0 0zM560.981 144.384c-1.707 6.613-6.699-1.28 0 0zM657.109 83.84c9.216 6.827-11.52 0.853 0 0zM144.64 413.184c26.453 10.24-28.331 7.296 0 0zM528 171.648c-0.299 17.109-16.853-4.267 0 0zM134.187 437.504c16.981 5.76-15.701 3.797 0 0zM183.467 413.611c-0.299 5.675-5.205-2.133 0 0zM784.64 44.971c21.888 4.437 71.637-11.093 79.659 5.803-26.496 0.64-91.733 18.688-94.805-4.309l5.803-0.939zM199.168 409.685c0.384 17.365-13.525 0.64 0 0zM69.547 499.627c-5.888 33.067-22.4 5.035 0 0zM100.437 491.861c0.384 10.624-28.288 9.557 0 0zM118.101 483.2c-5.12 4.139-4.011-5.205 0 0zM229.248 411.947c5.205 4.779-12.373 3.541 0 0zM106.368 502.741c-2.987 24.96-35.84 3.755 0 0zM42.965 543.872c-0.853 11.52-6.144-4.352 0 0zM52.395 550.997c-1.536 13.653-8.107-1.707 0 0zM104.448 519.893c22.059 8.661-40.107 17.92-4.48 1.664zM801.365 89.429c14.080 12.928-17.92 4.011 0 0zM885.589 45.781c5.632 16.725-14.251-2.176 0 0zM109.781 547.157c2.347 16.171-17.451-3.2 0 0zM35.712 596.779c-3.968 22.827-3.413 62.891 34.645 49.323-50.816-10.069 35.157-63.147 24.32-21.248 21.333-1.024 41.813 12.629 30.549-8.107 42.112 4.651 71.296 41.131 111.957 36.053 31.659 4.181 66.304 7.339 100.437 20.096 28.075 2.048 55.083 32.256 39.68 50.133-38.229 3.243-78.293-1.536-120.619-9.941-46.848-9.728-89.429-28.245-136.747-36.224-46.080-6.187 9.259-17.067-3.925-19.456-24.064-8.363 28.672-13.995-3.115-22.784-19.627 3.755-40.107 10.496-31.701 31.147-44.16-5.675-82.987-24.021-48.085-68.949zM142.123 650.965c10.368 38.144 55.467-31.36 16.981-5.035-4.608 3.413-12.16 6.229-16.981 5.035zM144.128 669.483c14.933 11.093 7.936-6.229 0 0zM163.115 669.141c1.365 17.536 43.435-9.301 6.955-6.315zM189.056 679.595c9.472 11.093 2.731-9.856 0 0zM195.712 684.032c15.787 18.944 89.387 12.075 35.499 1.835-14.421 10.88-25.515-6.4-35.499-1.835zM291.755 698.837c-2.389 51.797 47.701-18.432 0 0zM319.019 699.008c9.941 26.112 38.656 10.453 4.608 5.248 0.725-2.773-1.024-13.483-4.608-5.248zM99.072 560.555c29.739 18.219-31.616 15.787 0 0zM121.045 554.411c10.453 11.093-22.656 4.523 0 0zM56.192 600.491c17.024 13.013-20.096 4.949 0 0zM935.253 50.517c0.512 15.147-12.971-6.827 0 0zM845.952 111.488c2.56 17.451-11.52-1.536 0 0zM959.872 44.629c23.765 0 72.021 7.381 20.267 7.381-8.107-1.28-47.317-1.024-20.267-7.381zM140.373 565.163c19.243 1.28 30.123 21.205-3.712 20.053-52.48 5.419 46.251-17.92-6.741-11.264-7.125-4.693 10.069-10.112 10.453-8.789zM157.355 556.544c-2.048 12.373-5.973-6.571 0 0zM177.408 610.176c8.405 10.368-11.52 2.773 0 0zM113.408 717.184c34.389 11.691 81.365 24.789 97.579-5.76-16.512 19.883-6.656 39.424 8.96 10.368 22.016-29.397 33.067 13.355 18.688 23.253 16.341-20.309 34.944-29.909 10.965-1.28 26.027 31.317-52.181-4.139-69.973-3.755-8.533-3.84-88.363-20.352-66.219-22.827zM133.547 755.712c19.627 14.805 67.755-8.789 36.864 14.72-2.987 2.645-67.669-17.835-36.864-14.72zM204.971 752.768c22.955-0.555-9.856 30.805 17.451 16.597-4.48 14.677-31.829 17.408-45.184 23.253-7.552-13.397 15.36-40.021 27.733-39.851zM146.091 817.621c7.936 10.752-13.909-5.461 0 0zM175.275 810.624c36.949 4.907-9.387 15.915-7.424 0.427zM120.789 853.291c-26.027 33.963 48.896-5.717 22.485 29.867-22.272 17.707-43.648-19.968-22.485-29.867zM454.656 673.451c11.947 21.163-49.28 28.501-8.021 7.467 3.797-1.28 2.944-8.96 8.021-7.467z" />
<glyph unicode="&#xe912;" glyph-name="git" d="M1004.629 493.653l-447.104 447.061c-25.771 25.728-67.499 25.728-93.355 0l-92.629-92.8 117.76-117.76c27.52 9.173 58.837 2.987 80.597-18.816 22.016-21.973 28.075-53.675 18.688-81.067l113.408-113.493c27.52 9.515 59.179 3.328 81.067-18.56 30.763-30.72 30.763-80.384 0-111.104-30.677-30.677-80.256-30.677-110.933 0-22.997 23.083-28.757 57.045-17.237 85.163l-106.197 105.643v-278.4c7.509-3.669 14.592-8.661 20.821-14.848 30.421-30.763 30.421-80.341 0-110.933-30.677-30.763-80.597-30.763-111.317 0-30.677 30.677-30.677 80.171 0 110.848 7.765 7.68 16.512 13.483 25.813 17.323v281.131c-9.259 3.883-18.091 9.472-25.6 17.109-23.253 23.253-28.843 57.259-16.896 85.717l-115.712 116.267-306.603-306.389c-25.6-25.813-25.6-67.584 0-93.397l447.147-447.019c25.771-25.771 67.499-25.771 93.269 0l445.013 445.013c25.813 25.728 25.813 67.499 0 93.312z" />
<glyph unicode="&#xe913;" glyph-name="github" d="M512 947.328c-282.88 0-512-229.248-512-512 0-226.261 146.688-418.133 350.080-485.76 25.6-4.821 34.987 11.008 34.987 24.619 0 12.16-0.427 44.373-0.64 87.040-142.421-30.891-172.459 68.693-172.459 68.693-23.296 59.093-56.96 74.88-56.96 74.88-46.379 31.744 3.584 31.104 3.584 31.104 51.413-3.584 78.421-52.736 78.421-52.736 45.653-78.293 119.851-55.68 149.12-42.581 4.608 33.109 17.792 55.68 32.427 68.48-113.707 12.8-233.216 56.832-233.216 253.013 0 55.893 19.84 101.547 52.693 137.387-5.76 12.928-23.040 64.981 4.48 135.509 0 0 42.88 13.739 140.8-52.48 40.96 11.392 84.48 17.024 128 17.28 43.52-0.256 87.040-5.888 128-17.28 97.28 66.219 140.16 52.48 140.16 52.48 27.52-70.528 10.24-122.581 5.12-135.509 32.64-35.84 52.48-81.493 52.48-137.387 0-196.693-119.68-240-233.6-252.587 17.92-15.36 34.56-46.763 34.56-94.72 0-68.523-0.64-123.563-0.64-140.203 0-13.44 8.96-29.44 35.2-24.32 204.843 67.157 351.403 259.157 351.403 485.077 0 282.752-229.248 512-512 512z" />
<glyph unicode="&#xe914;" glyph-name="gitlab1" d="M206.677 921.429c-18.898-0.028-34.933-12.253-40.658-29.222l-0.089-0.303-107.947-332.075c0-0.299-0.213-0.512-0.299-0.853l-54.699-167.936c-1.906-5.662-3.005-12.183-3.005-18.96 0-20.319 9.884-38.329 25.105-49.485l0.172-0.12 472.405-343.253c3.925-2.874 8.85-4.599 14.177-4.599 5.429 0 10.439 1.791 14.472 4.815l-0.063-0.045 472.491 343.040c15.417 11.266 25.319 29.283 25.319 49.613 0 6.822-1.115 13.383-3.172 19.512l0.126-0.432-53.76 164.992c-0.33 1.689-0.787 3.176-1.38 4.591l0.057-0.154-107.776 331.733c-5.878 17.109-21.831 29.185-40.603 29.185-0.080 0-0.161 0-0.241-0.001h0.012c-0.098 0.001-0.214 0.001-0.33 0.001-18.733 0-34.609-12.231-40.077-29.143l-0.083-0.298-102.656-316.075h-324.181l-102.827 316.075c-5.552 17.209-21.428 29.44-40.16 29.44-0.026 0-0.052 0-0.079 0h0.004zM206.421 860.843l92.757-284.928h-185.088zM817.749 860.843l92.501-284.928h-185.259zM365.739 527.616h292.779l-91.733-282.368-54.784-168.149zM130.432 527.403h184.405l131.669-405.333zM709.333 527.403h184.576l-316.245-405.419 126.251 388.608zM89.6 500.821l297.728-381.739-333.568 242.432c-3.291 2.392-5.406 6.228-5.406 10.558 0 1.426 0.229 2.799 0.653 4.083l-0.026-0.092zM934.4 500.821l40.619-124.672c0.408-1.207 0.643-2.597 0.643-4.041 0-4.3-2.086-8.113-5.301-10.483l-0.036-0.025v-0.085l-333.653-242.347 1.067 1.493z" />
<glyph unicode="&#xe915;" glyph-name="gmail" d="M1024 768v-640c0-36.267-27.733-64-64-64h-64v580.821l-384-275.755-384 275.755v-580.821h-64c-36.309 0-64 27.733-64 64v640c0 18.133 6.912 34.133 18.389 45.568 11.477 11.605 27.52 18.432 45.611 18.432h21.333l426.667-309.333 426.667 309.333h21.333c18.133 0 34.133-6.912 45.611-18.432 11.52-11.435 18.389-27.435 18.389-45.568z" />
<glyph unicode="&#xe916;" glyph-name="googlecloud" d="M520.107 858.453c-2.75 0.068-5.989 0.107-9.238 0.107-183.019 0-337.234-123.323-384.079-291.404l-0.667-2.804c2.261 0.853-2.347-0.555 0 0-165.333-108.843-167.339-346.027-10.539-466.816l0.256 0.299-0.299-1.28c47.436-36.114 107.515-57.859 172.673-57.859 0.45 0 0.899 0.001 1.348 0.003h220.646l1.28-1.28h221.525c285.312-2.261 400.043 367.147 163.627 526.933-21.5 77.643-63.565 143.629-119.964 193.87l-0.399 0.349-1.835-1.835 0.256 2.133c-67.685 59.921-156.565 97.269-254.118 99.575l-0.474 0.009zM504.832 681.557c53.077 1.707 107.435-15.701 148.736-49.067 48.724-40.869 79.484-101.779 79.484-169.873 0-1.449-0.014-2.895-0.042-4.337l0.003 0.216v-22.101c150.613 2.987 150.613-224.512 0-221.568h-221.568l-0.341-0.384v1.707h-221.611c-16.498 0-32.151 3.615-46.211 10.097l0.686-0.284h0.043c-38.712 17.84-65.1 56.308-65.1 100.94 0 61.196 49.609 110.805 110.805 110.805 44.632 0 83.1-26.388 100.655-64.413l0.284-0.687 128.555 128.512c-42.053 54.437-102.218 93.098-171.342 106.998l-1.842 0.309c0.768 0.427 1.707 1.109 2.304 0.981 39.061 42.769 94.4 70.102 156.142 72.14l0.359 0.009z" />
<glyph unicode="&#xe917;" glyph-name="graphql" d="M599.509 842.624l210.56-121.6c34.816 36.651 92.715 38.101 129.365 3.285 6.315-5.973 11.691-12.843 16.085-20.352 25.131-43.861 9.899-99.797-33.963-124.928-7.424-4.267-15.403-7.467-23.808-9.515v-243.157c48.896-11.648 79.104-60.715 67.413-109.611-2.048-8.704-5.419-17.067-9.899-24.789-25.259-43.648-81.109-58.624-124.885-33.365-8.363 4.821-16 11.051-22.443 18.304l-209.28-120.832c15.872-47.957-10.155-99.627-58.069-115.456-9.259-3.029-18.859-4.608-28.587-4.608-50.389-0.043-91.264 40.747-91.307 91.136 0 8.747 1.237 17.493 3.755 25.984l-210.603 121.472c-34.816-36.437-92.629-37.845-129.109-2.987-36.437 34.816-37.803 92.629-2.987 129.109 12.075 12.672 27.563 21.589 44.544 25.728l0.043 243.157c-49.067 11.776-79.275 61.141-67.456 110.251 2.005 8.448 5.248 16.597 9.557 24.149 25.259 43.691 81.152 58.624 124.885 33.365 7.552-4.309 14.464-9.728 20.48-16.085l210.688 121.6c-14.336 48.341 13.269 99.072 61.483 113.365 8.405 2.517 17.237 3.755 26.027 3.755 50.389 0.043 91.264-40.704 91.307-91.051 0.043-8.917-1.28-17.835-3.797-26.325zM577.536 805.205c-0.811-0.896-1.579-1.664-2.475-2.475l275.669-477.44c1.109 0.384 2.389 0.683 3.499 0.981v243.499c-48.853 12.075-78.592 61.525-66.475 110.421 0.256 1.024 0.512 2.091 0.811 3.072zM448.896 802.688l-2.56 2.56-211.029-121.685c13.952-48.427-13.952-98.901-62.336-112.853-1.109-0.341-2.176-0.597-3.243-0.896v-243.541l3.584-0.981 275.669 477.44zM537.472 781.056c-16.64-4.779-34.261-4.779-50.859 0l-275.627-477.397c12.544-12.075 21.419-27.52 25.6-44.416h550.869c4.139 16.981 13.099 32.469 25.728 44.544zM579.541 88.704l209.621 121.088c-0.64 2.005-1.152 4.011-1.621 6.059h-551.083l-0.896-3.541 210.731-121.685c16.555 17.237 39.851 27.861 65.707 27.861 26.752 0 50.773-11.477 67.541-29.781z" />
<glyph unicode="&#xe918;" glyph-name="heroku" d="M879.36 960h-734.72c-51.243 0-92.16-40.96-92.16-92.16v-839.723c0-51.115 40.917-92.117 92.16-92.117h734.72c51.2 0 92.117 41.003 92.117 92.117v839.723c0.043 51.2-40.875 92.16-92.117 92.16zM920.32 28.117c0-22.997-17.963-40.96-40.96-40.96h-734.72c-23.040 0-40.96 17.963-40.96 40.96v839.723c0 23.040 17.92 41.003 40.96 41.003h734.72c22.997 0 40.96-17.963 40.96-41.003zM282.88 89.643l115.2 102.357-115.2 102.4zM697.6 504.32c-20.437 20.48-58.837 46.080-122.837 46.080-69.163 0-140.843-17.963-192-35.84v291.84h-102.4v-442.88l71.68 33.28c0 0 117.76 53.76 220.16 53.76 51.2 0 64-28.16 64-53.76v-307.2h102.4v307.2c2.517 7.637 2.517 64.043-41.003 107.52zM561.92 640h102.4c46.080 53.76 69.12 107.563 76.8 166.4h-102.357c-10.283-58.837-35.883-112.64-76.843-166.4z" />
<glyph unicode="&#xe919;" glyph-name="html51" d="M64 960h896l-81.493-920.021-367.488-103.979-365.397 104.021zM363.989 544l-9.899 115.968 429.184-0.128 9.813 111.872-562.176 0.128 29.781-341.76h389.376l-13.909-146.176-124.16-34.304-126.080 34.56-8.021 90.027h-111.317l14.080-177.963 231.339-61.867 229.504 61.568 31.744 348.032z" />
<glyph unicode="&#xe91a;" glyph-name="icloud" d="M853.888 502.357l0.043 1.195c0 0.023 0 0.051 0 0.079 0 149.538-121.225 270.763-270.763 270.763-102.217 0-191.204-56.641-237.288-140.249l-0.706-1.398c-19.566 10.429-42.789 16.554-67.443 16.554-77.491 0-140.849-60.509-145.402-136.856l-0.019-0.401c-77.811-29.004-132.241-102.644-132.309-189.005v-0.008c0.024-111.189 90.154-201.32 201.341-201.344h631.768c105.217 0.307 190.393 85.673 190.393 190.933 0 97.938-73.739 178.654-168.727 189.656l-0.887 0.084z" />
<glyph unicode="&#xe91b;" glyph-name="jenkins" d="M122.581-64h-41.6c-1.067 2.816-2.091 5.589-2.987 8.405-9.173 28.416-25.344 63.573-29.525 91.904-6.229 41.984 33.28 44.331 58.624 62.507 39.040 28.16 69.76 43.733 112.085 69.163 12.587 7.595 50.432 26.581 54.656 35.328 8.576 17.408-14.72 41.899-20.907 55.509-9.6 21.589-14.72 39.936-16.043 61.184-35.157 5.589-62.080 26.752-78.677 50.56-26.88 39.467-45.483 112.427-22.4 167.936 1.92 4.395 10.837 13.013 12.16 19.755 2.56 13.184-4.48 30.72-5.163 44.757-2.56 72.192 12.16 134.4 60.843 156.16 19.755 78.507 90.155 104.661 156.715 143.659 24.789 14.592 52.224 23.979 80.64 34.432 101.205 37.419 257.195 30.379 341.12-33.408 35.669-27.008 92.843-84.096 113.323-125.397 53.845-109.013 49.92-291.243 12.245-423.893-5.163-17.963-12.416-44.032-22.741-65.408-7.168-14.891-29.397-44.8-26.667-58.027 2.731-13.397 50.731-49.92 61.099-59.52 18.517-18.005 53.76-41.6 56.491-64 2.987-23.765-10.581-57.003-17.493-80-9.259-30.763-18.603-61.483-27.904-90.923h-807.979zM596.352 87.083c-23.253 12.757-58.069 26.496-88.107 32.256-37.077 6.997-33.237-50.688-32-85.077 1.28-27.435 15.403-56.149 21.803-74.411 3.2-8.405 3.797-17.493 10.88-19.157 12.8-2.901 55.040 13.909 67.2 20.437 25.6 13.995 45.397 36.011 67.157 50.731 0.683 7.253 0.683 14.507 1.323 21.675-12.843 6.315-27.52 11.008-46.763 11.819 13.397 6.4 32 6.4 44.16 14.165l0.683 8.235c-21.163 1.323-29.397 10.837-43.563 18.603zM914.432-38.187c8.235 26.411 15.317 52.096 19.84 74.752 2.517 12.245 9.173 39.168 7.595 50.176-2.517 19.584-29.184 34.091-42.837 46.336-24.917 22.4-40.576 41.6-66.603 62.677-10.581-16-33.237-26.24-41.899-38.997 61.739 29.397 72.917-112 48.683-157.397 3.84-14.080 16.683-19.243 21.931-31.403l-3.669-7.083h54.997c0.597 0 1.323 0 1.92-0.597zM631.339-37.675c-2.091 3.157-4.267 5.76-6.4 8.917l-12.843-8.32h19.243zM749.568-37.675c0.341 8.917 0.768 17.237 1.237 25.515-22.571-1.237-35.157 20.48-50.987 22.485-13.824 1.92-25.6-15.403-43.52-8.32-4.096-4.48-7.851-9.685-12.16-13.483 6.571-7.68 12.587-16 18.091-24.917h34.816c0.597 6.997 5.76 12.16 12.757 12.16 7.083 0 12.16-5.163 12.16-11.52h28.16zM839.851-37.675c-13.397 20.437-40.405 38.315-71.68 23.68l-1.323-23.083h73.003zM476.757-37.675l-4.48 14.677c-9.6 30.763-15.317 53.76-17.28 71.68-38.997 18.603-80 37.163-113.237 60.843-6.4 4.48-47.317 57.6-52.48 55.68-74.197-28.843-143.317-79.317-205.397-127.317 10.923-23.765 20.48-48.683 29.44-74.24h362.88zM829.397 52.48c-1.237 21.845-6.997 66.603-20.48 74.24-28.16 16.683-78.763-33.237-99.84-40.235 1.92-6.4 5.76-11.563 6.4-20.48 12.16 3.157 27.52 1.237 38.315-3.925-12.757-1.237-26.837-1.237-35.157-6.997-3.157-8.32 0.683-20.48-1.237-32.597 29.397-8.405 64-12.928 101.76-14.165 6.997 9.685 9.6 27.52 9.003 46.165zM655.317 67.84c-1.92-16 1.92-21.76 5.077-40.235 53.76-16.683 44.16 74.24-5.76 40.917zM373.803 128c-19.2-19.499 54.229-46.165 77.397-47.573 0 12.416 7.040 24.064 5.76 32.896-27.691 4.992-64.085 1.749-82.987 14.763zM611.243 118.827c0-1.835-2.603-1.237-2.901-2.731 24.747-19.243 43.264-23.253 76.928-21.76 15.104 11.179 28.587 24.021 44.501 34.432-36.48-3.157-82.432-25.899-118.4-9.771zM757.163 875.179c-68.48 38.656-185.6 67.883-259.243 31.189-58.88-29.525-139.52-78.549-166.357-140.459 25.6-59.819-7.083-114.603-9.643-175.317-0.768-32.341 15.36-60.587 16.683-95.701-8.533-14.421-35.2-16.213-53.76-15.189-6.229 31.104-17.109 66.091-49.28 69.589-45.397 4.907-78.72-32.64-80.683-71.851-2.56-46.037 35.584-122.197 89.003-117.12 20.821 1.963 25.941 23.083 48.597 23.083 12.16-24.32-18.987-32-22.315-49.28-0.683-4.48 2.517-21.803 4.437-30.080 9.941-40.277 31.744-92.117 53.12-122.88 27.093-38.4 80.384-44.843 137.771-48.683 10.24 22.4 48 20.48 72.789 14.763-29.483 11.52-57.003 40.32-80 65.237-26.24 28.843-52.48 60.16-53.803 97.28 49.28-68.437 89.6-127.957 179.243-158.037 67.84-22.4 147.157 10.837 198.997 47.317 21.76 15.317 34.603 39.68 49.92 61.397 57.6 82.603 84.48 200.96 78.763 315.52-2.603 47.403-2.603 94.763-18.603 126.080-16.597 33.323-72.32 62.763-105.6 33.323-6.4 32.597 26.837 52.437 65.92 40.917-28.16 36.48-57.003 79.317-96.683 101.76zM579.499 324.437c26.24-65.877 116.267-58.155 192.256-56.448-3.584-8.277-10.923-18.56-19.84-21.973-24.32-9.899-91.563-17.408-125.355 0.512-21.589 11.563-35.157 37.248-47.019 52.352-5.845 7.339-33.92 25.941-0.512 25.984zM586.496 361.6c38.101-19.84 107.52-22.101 159.232-20.48 2.816-11.435 2.816-25.344 2.901-38.997-66.176-3.413-144.512 12.971-161.92 59.52zM871.339 386.56c-20.181-38.4-48.853-80.939-108.331-82.261-0.981 12.117-1.92 31.36 0 38.571 45.397 4.395 73.685 27.563 108.501 43.392zM843.648 415.019c-43.52-28.16-91.904-58.667-163.157-51.627-15.019 13.227-20.736 42.709-6.016 62.208 7.765-13.355 2.603-37.76 24.32-41.344 40.32-7.083 86.997 24.661 116.48 35.84 17.92 30.379-1.92 41.6-17.92 61.099-33.323 39.723-78.080 89.6-76.843 149.76 13.397 9.6 14.763-14.72 16.683-19.157 17.237-41.003 60.757-92.843 92.757-128 7.68-9.003 20.48-16.683 21.76-22.4 3.925-16.597-10.837-36.437-8.917-47.317zM270.208 443.819c-13.397 7.851-16.768 42.24-32.768 43.093-22.827 1.28-18.688-44.757-18.603-71.637-15.787 14.037-18.56 58.197-6.997 80.64-13.141 6.4-18.987-7.040-26.368-12.16 9.387 67.84 99.84 31.317 84.864-40.96zM201.131 704.256c-29.227-32.256-23.040-92.757-19.584-136.021 53.077 33.493 123.648-2.56 123.008-59.52 25.387 0.683 9.515 31.744 4.907 51.84-15.061 65.237 25.259 136.021 1.749 195.84-45.397-3.541-82.731-22.144-109.995-51.797zM590.251 656.768c13.099-23.979 17.237-48.981 35.84-66.987 8.32-8.149 24.491-18.091 16.512-40.576-1.92-5.163-15.573-16.683-23.509-19.2-28.757-8.32-96.171-1.28-73.429 34.56 24.021-0.64 56.064-15.317 73.899 1.92-13.397 22.4-37.76 65.28-28.757 90.88zM854.741 657.323h2.901c14.080-28.501 25.6-58.667 42.837-83.84-11.52-26.837-87.595-50.773-86.315-2.432 16.597 7.253 44.757 1.493 59.52 10.667-8.235 23.723-20.48 42.923-18.517 75.563zM559.147 726.315c-60.672 14.080-90.923-25.259-109.227-66.261-16.384 4.011-9.856 26.24-5.76 37.675 10.88 29.909 54.613 69.675 90.411 64.256 15.317-2.432 36.181-16.469 24.576-35.584zM411.435 892.075c-66.56-18.773-151.893-67.157-179.2-126.891 21.12 2.987 35.84 13.696 56.747 14.976 7.936 0.683 18.261-3.157 27.349-0.64 18.091 4.437 33.28 45.44 47.019 60.117 13.269 14.763 29.227 21.205 40.149 34.603 7.083 3.84 17.408 3.157 17.92 14.080-3.157 3.2-6.4 5.76-9.941 4.48z" />
<glyph unicode="&#xe91c;" glyph-name="jetbrains" d="M0 960h1024v-1024h-1024zM89.6 64h384v64h-384zM140.8 665.6h12.8c29.867 4.267 51.2 29.867 51.2 64v102.4h-46.933v-106.667c0-17.067-4.267-21.333-17.067-21.333s-21.333 4.267-25.6 12.8l-29.867-25.6c12.8-21.333 34.133-29.867 55.467-25.6zM354.133 665.6v38.4h-89.6v25.6h76.8v38.4h-76.8v25.6h89.6v38.4h-136.533v-170.667h136.533zM409.6 665.6h46.933v128h51.2v38.4h-145.067v-38.4h51.2v-128zM238.933 503.467c0 21.333-12.8 38.4-34.133 38.4 17.067 4.267 25.6 21.333 25.6 38.4 0 8.533-4.267 21.333-8.533 29.867-12.8 12.8-29.867 17.067-46.933 17.067h-85.333v-166.4h85.333c38.4 0 64 17.067 64 42.667zM132.267 588.8h29.867c12.8 0 21.333-4.267 21.333-12.8 0-12.8-8.533-17.067-21.333-17.067h-29.867zM132.267 499.2v29.867h34.133c17.067 0 25.6-4.267 21.333-12.8 0-8.533-8.533-17.067-21.333-17.067zM448 627.2l-64-149.333-25.6 38.4c21.333 8.533 34.133 29.867 34.133 51.2 0 12.8-4.267 29.867-12.8 38.4-17.067 17.067-38.4 21.333-55.467 21.333h-81.067v-166.4h46.933v51.2h21.333l34.133-51.2h76.8l12.8 29.867h64l12.8-29.867h51.2l-68.267 170.667h-46.933zM320 546.133h-29.867v38.4h29.867c12.8 0 25.6-4.267 25.6-21.333 0-8.533-8.533-17.067-25.6-17.067zM486.4 524.8h-34.133l17.067 46.933zM567.467 460.8h46.933v166.4h-46.933zM738.133 537.6l-68.267 89.6h-42.667v-166.4h46.933v89.6l72.533-93.867h38.4v170.667h-46.933zM870.4 563.2c-21.333 4.267-29.867 8.533-29.867 17.067 0 4.267 4.267 8.533 17.067 8.533 17.067 0 34.133-8.533 46.933-17.067l25.6 34.133c-21.333 17.067-42.667 21.333-68.267 21.333-38.4 0-64-25.6-64-55.467 0-34.133 25.6-42.667 64-51.2 21.333-4.267 29.867-8.533 29.867-17.067s-8.533-12.8-21.333-12.8c-21.333 0-38.4 8.533-55.467 21.333l-25.6-29.867c21.333-17.067 51.2-25.6 76.8-25.6 42.667 0 68.267 21.333 68.267 55.467 0 29.867-25.6 42.667-64 51.2z" />
<glyph unicode="&#xe91d;" glyph-name="jira" d="M995.115 476.587l-483.115 483.413-483.413-483.413c-7.278-7.389-11.772-17.538-11.772-28.736s4.494-21.347 11.777-28.741l483.408-483.11 483.115 483.115c7.432 7.318 12.037 17.489 12.037 28.736s-4.605 21.418-12.032 28.731l-0.005 0.005zM512 296.491l-151.509 151.509 151.509 151.339 151.381-151.339z" />
<glyph unicode="&#xe91e;" glyph-name="kotlin" d="M55.467-64l482.133 490.667 486.4-490.667zM0 960h512l-512-533.333zM571.733 960l-571.733-597.333v-426.667l1024 1024z" />
<glyph unicode="&#xe91f;" glyph-name="netflix" d="M229.973 959.829l202.667-574.293v0.299l16.043-45.227c89.088-252.075 136.96-387.2 137.216-387.499 0.171 0 13.653-0.853 29.952-1.707 49.323-2.133 110.507-7.68 156.843-13.227 10.667-1.28 19.883-1.707 20.48-1.28l-200.96 570.027-18.603 52.48-103.381 292.267c-19.627 55.467-36.267 102.741-37.12 104.533l-1.323 3.797zM592.981 959.488l-0.427-226.389-0.341-226.389-18.645 52.565v0.085l-24.107-503.893c23.68-66.859 36.352-102.528 36.48-102.699 0.171-0.171 13.653-1.024 29.952-1.792 49.365-2.133 110.507-7.68 157.013-13.227 10.667-1.28 19.925-1.707 20.48-1.28s0.853 231.253 0.725 512.427l-0.341 510.677zM229.973 959.915v-511.573c0-281.344 0.299-511.787 0.64-512.128s17.749 1.28 38.699 3.669c20.907 2.56 49.92 5.547 64.427 6.827 22.101 2.133 88.235 6.4 95.915 6.4 2.219 0 2.389 11.52 2.688 216.747l0.341 216.747 16.213-45.227 5.547-16.043 24.32 503.467-8.107 23.296-37.547 104.107-1.28 3.712z" />
<glyph unicode="&#xe920;" glyph-name="netlify" d="M722.517 596.523c5.031-2.564 9.311-5.849 12.897-9.778l0.031-0.035 100.224 44.587-93.525 92.629-20.949-126.037zM514.56 680.704c4.664-6.945 7.844-15.262 8.893-24.23l0.025-0.261 149.205-63.232c4.296 3.318 9.348 5.909 14.832 7.475l0.314 0.077 24.491 151.467-90.88 95.317-106.88-164.352zM1023.701 446.421l-159.915 159.915-108.715-44.544 267.264-113.579c0 0 2.261-1.792 1.365-1.792zM996.949 420.565l-256.555 109.611c-7.086-9.331-17.603-15.739-29.639-17.341l-0.227-0.025-27.605-168.832c7.947-8.005 12.875-19.017 12.928-31.179v-0.010l155.008-32.512 142.080 141.227v2.645zM657.067 565.333l-139.435 59.307c-9.28-14.052-25.004-23.196-42.863-23.196-0.591 0-1.18 0.010-1.767 0.030l0.085-0.002h-8.491l-115.371-178.219 308.267 133.632v-0.427c-0.107 1.068-0.168 2.308-0.168 3.563s0.061 2.495 0.18 3.718l-0.012-0.155c0.022 0.119 0.035 0.255 0.035 0.394 0 0.513-0.174 0.985-0.466 1.36l0.004-0.005zM826.325 253.525l-136.32 28.075c-5.081-6.457-11.699-11.485-19.313-14.565l-0.314-0.112-32.469-201.387 189.312 187.563c0 0-0.427-0.853-0.896-0.853zM635.648 267.349c-12.99 5.427-22.701 16.456-26.214 29.984l-0.068 0.31-253.867 52.139-3.584-5.803 230.315-333.227 13.781 13.824 39.211 241.92c0 0 1.323-0.939 0.427-0.469zM360.832 380.501l250.795-51.669c7.25 12.493 20.086 21.050 34.999 22.262l0.159 0.010 27.179 166.144-5.76 4.907-311.808-133.632c1.434-2.218 2.912-4.845 4.235-7.562l0.202-0.46zM255.701 338.645l-5.333 5.333-108.245-44.544 52.565-52.139 59.691 92.672zM326.955 321.707c-7.046-3.318-15.298-5.278-24.002-5.333h-0.019c-0.071 0-0.155 0-0.239 0-6.786 0-13.306 1.141-19.378 3.24l0.416-0.125-65.877-95.787 288.64-285.952 50.773 50.347zM286.421 434.389c2.008 0.197 4.34 0.31 6.699 0.31s4.691-0.112 6.992-0.332l-0.293 0.023c2.204 0.293 4.752 0.46 7.339 0.46s5.135-0.167 7.634-0.491l-0.295 0.031 116.693 181.333c-8.792 9.094-14.219 21.489-14.251 35.151v0.006c-0.201 1.735-0.316 3.745-0.316 5.781s0.115 4.047 0.339 6.024l-0.022-0.242-141.653 65.493-114.005-110.933zM299.349 750.208l138.112-58.795c9.078 7.512 20.84 12.068 33.666 12.068 0.69 0 1.376-0.013 2.059-0.039l-0.098 0.003c6.067-0.055 11.885-1.034 17.348-2.803l-0.41 0.115 107.776 168.405-89.088 89.088-209.365-205.355c0 0-0.427-2.219 0-2.688zM247.723 401.877c2.937 5.43 6.338 10.11 10.271 14.284l-0.031-0.034-118.101 176.384-139.861-135.851zM236.544 372.011l-213.803 44.629 93.995-95.36 118.485 50.347z" />
<glyph unicode="&#xe921;" glyph-name="nginx" d="M512 960l-443.52-256v-512l443.52-256 443.52 256v512zM768 252.16c0-30.080-27.563-55.040-65.237-55.040-26.923 0-57.643 10.88-76.843 34.56l-256 304.683v-284.16c0-30.763-24.32-55.040-54.357-55.040h-3.243c-30.763 0-55.040 25.6-55.040 55.040v391.637c0 30.080 26.88 55.040 64 55.040 27.563 0 58.88-10.88 78.080-34.56l254.72-304.683v284.203c0 30.763 25.6 55.040 55.040 55.040h3.2c30.72 0 55.040-25.6 55.040-55.040v-391.68z" />
<glyph unicode="&#xe922;" glyph-name="notion" d="M190.251 780.459c31.829-25.856 43.776-23.893 103.595-19.883l563.84 33.835c11.947 0 2.005 11.947-1.963 13.909l-93.696 67.712c-17.92 13.909-41.856 29.867-87.68 25.899l-545.92-39.851c-19.883-1.963-23.893-11.947-15.957-19.883zM224.085 649.045v-593.237c0-31.872 15.915-43.819 51.797-41.813l619.648 35.84c35.883 1.963 39.893 23.893 39.893 49.792v589.269c0 25.856-9.941 39.808-31.915 37.845l-647.552-37.845c-23.893-2.005-31.872-13.952-31.872-39.851zM835.797 617.259c3.968-17.92 0-35.84-17.92-37.888l-29.867-5.973v-437.931c-25.941-13.952-49.835-21.931-69.76-21.931-31.915 0-39.893 9.984-63.787 39.808l-195.285 306.603v-296.619l61.781-13.995c0 0 0-35.84-49.835-35.84l-137.472-7.936c-3.968 7.936 0 27.861 13.952 31.829l35.84 9.941v392.235l-49.707 4.011c-4.011 17.92 5.973 43.776 33.835 45.781l147.456 9.941 203.264-310.571v274.773l-51.84 5.931c-3.968 21.931 11.947 37.845 31.872 39.808zM82.603 915.84l567.893 41.813c69.717 5.973 87.68 2.005 131.499-29.867l181.291-127.403c29.867-21.888 39.851-27.861 39.851-51.755v-698.795c0-43.776-15.915-69.717-71.68-73.643l-659.541-39.851c-41.813-2.005-61.781 3.968-83.712 31.872l-133.504 173.227c-23.893 31.872-33.835 55.723-33.835 83.627v621.141c0 35.797 15.957 65.707 61.739 69.632z" />
<glyph unicode="&#xe923;" glyph-name="playstation" d="M383.36 849.237v-748.715l167.040-53.803v627.925c0 29.44 12.971 49.109 33.877 42.283 27.136-7.723 32.427-34.731 32.427-64.213v-250.709c104.149-50.901 186.112 0.085 186.112 134.528 0 138.112-48.043 199.467-189.355 248.619-55.765 19.115-159.061 50.603-230.016 64.085zM582.016 156.245l268.629 97.067c30.507 11.008 35.243 26.667 10.496 34.901-25.003 8.192-69.845 5.931-100.565-5.248l-179.413-63.957v101.76l10.24 3.627c0 0 51.243 17.92 124.288 26.24 72.363 7.68 161.493-1.237 231.979-28.203 78.848-25.643 87.083-62.805 67.243-88.405s-69.205-44.203-69.205-44.203l-364.544-132.565v98.005zM77.141 166.4c-81.067 23.253-94.464 71.168-57.685 99.029 34.176 24.96 92.117 44.843 92.117 44.843l239.616 85.888v-98.688l-171.733-62.805c-30.080-11.563-35.2-26.965-10.197-35.243 25.003-8.32 69.845-6.4 99.968 5.12l82.688 30.123v-88.491c-5.163-1.237-10.923-1.877-16.683-3.115-82.688-14.123-170.453-8.363-257.579 20.437z" />
<glyph unicode="&#xe924;" glyph-name="postgresql" d="M730.795 960c-41.999-0.322-82.411-6.582-120.607-17.979l3.061 0.784-2.688-0.853c-21.664 4.029-46.845 6.571-72.532 7.034l-0.428 0.006c-50.261 0.853-93.44-11.349-128.256-31.659-34.304 11.904-105.472 32.427-180.48 28.331-52.224-2.859-109.227-18.731-151.467-63.317-42.112-44.587-64.384-113.579-59.691-207.445 1.28-25.899 8.661-68.139 20.907-122.837s29.44-118.741 50.901-177.152c21.461-58.453 44.971-110.933 81.707-146.603 18.347-17.877 43.605-32.896 73.387-31.659 20.907 0.853 39.808 10.027 56.107 23.552 7.936-10.453 16.427-15.019 24.149-19.243 9.728-5.333 19.2-8.96 29.013-11.349 17.621-4.395 47.787-10.283 83.115-4.267 12.032 2.005 24.704 5.931 37.333 11.52 0.469-14.080 1.024-27.861 1.579-41.813 1.749-44.203 2.859-85.035 16.128-120.832 2.133-5.845 7.979-35.968 31.019-62.549 23.040-26.624 68.181-43.221 119.595-32.213 36.267 7.765 82.389 21.76 113.024 65.365 30.293 43.093 43.947 104.917 46.635 205.184 0.683 5.419 1.493 10.027 2.347 14.336l7.211-0.64h0.853c38.699-1.749 80.683 3.755 115.755 20.053 31.061 14.379 54.571 28.928 71.68 54.741 4.267 6.4 8.96 14.123 10.24 27.435s-6.357 34.133-19.029 43.733c-25.387 19.285-41.344 11.947-58.453 8.405-15.229-3.526-32.867-5.772-50.951-6.223l-0.334-0.007c49.323 83.072 84.693 171.307 104.875 249.387 11.947 46.080 18.645 88.576 19.2 125.739s-2.475 70.059-24.747 98.517c-69.589 88.917-167.424 113.493-243.115 114.347-2.347 0.043-4.693 0.085-7.040 0.171zM728.789 932.693c71.595 0.683 163.072-19.413 228.736-103.339 14.763-18.859 19.157-46.421 18.645-80.384-0.555-33.92-6.827-74.539-18.304-119.040-22.272-86.187-64.341-186.667-123.605-276.821 1.945-1.399 4.166-2.631 6.526-3.592l0.216-0.078c12.373-5.12 40.576-9.515 96.853 2.048 14.165 2.987 24.533 4.992 35.285-3.2 4.81-4.096 7.841-10.156 7.841-16.925 0-0.425-0.012-0.847-0.036-1.267l0.003 0.058c-0.619-5.441-2.606-10.325-5.606-14.42l0.059 0.084c-10.88-16.341-32.341-31.829-59.861-44.587-24.363-11.349-59.307-17.28-90.283-17.621-15.531-0.171-29.867 1.024-42.027 4.821l-0.768 0.299c-4.693-45.227-15.488-134.528-22.528-175.275-5.632-32.853-15.488-58.965-34.304-78.507-18.773-19.541-45.355-31.317-81.109-38.997-44.288-9.515-76.587 0.725-97.408 18.261-20.779 17.493-30.293 40.704-36.011 54.912-3.925 9.813-5.973 22.528-7.936 39.509s-3.413 37.76-4.395 61.184c-0.927 23.827-1.455 51.804-1.455 79.904 0 9.755 0.064 19.495 0.191 29.22l-0.015-1.477c-17.849-16.39-40.415-27.912-65.434-32.312l-0.784-0.114c-29.397-4.992-55.637-0.085-71.296 3.84-8.433 2.149-15.816 5.086-22.697 8.83l0.51-0.254c-7.253 3.883-14.165 8.277-18.773 16.939-1.839 3.306-2.921 7.25-2.921 11.448 0 1.702 0.178 3.363 0.516 4.964l-0.028-0.156c1.516 5.773 4.806 10.628 9.243 14.079l0.059 0.044c8.448 6.869 19.627 10.709 36.48 14.208 30.677 6.315 41.387 10.624 47.915 15.787 5.547 4.437 11.819 13.397 22.912 26.539-0.042 0.405-0.087 1.010-0.122 1.618l-0.006 0.131c-20.89 0.605-40.347 6.191-57.397 15.604l0.651-0.329c-6.4-6.741-39.083-41.301-78.933-89.259-16.768-20.053-35.285-31.573-54.827-32.384-19.541-0.853-37.205 9.003-52.224 23.552-29.995 29.141-53.931 79.275-74.795 135.936-20.821 56.661-37.76 119.765-49.792 173.525-12.075 53.76-19.2 97.109-20.224 118.016-4.48 88.832 16.299 148.693 51.925 186.453 35.669 37.76 84.565 52.053 132.224 54.784 85.547 4.907 166.784-24.917 183.211-31.317 31.659 21.504 72.448 34.901 123.392 34.048 25.632-0.37 50.302-3.741 73.907-9.775l-2.184 0.473 0.853 0.384c8.235 3.056 18.776 6.194 29.547 8.736l1.984 0.395c26.415 6.465 56.848 10.376 88.124 10.792l0.281 0.003zM735.275 904.107h-6.229c-25.953-0.373-51.003-3.338-75.174-8.647l2.47 0.455c53.163-23.552 93.312-59.819 121.6-96 18.708-23.661 34.899-50.64 47.401-79.585l0.898-2.335c4.693-11.264 7.851-20.779 9.643-28.16 0.896-3.712 1.493-6.827 1.707-10.069 0.085-1.621 0.171-3.285-0.512-6.144 0-0.128-0.213-0.427-0.256-0.555 1.28-37.376-7.979-62.72-9.088-98.389-0.853-25.856 5.76-56.235 7.381-89.387 1.536-31.147-2.219-65.365-22.443-98.944 1.707-2.048 3.243-4.096 4.864-6.144 53.504 84.267 92.075 177.493 112.64 256.981 11.008 42.795 16.853 81.579 17.365 112.299 0.427 30.72-5.291 52.992-12.587 62.293-57.259 73.216-134.741 91.861-199.68 92.331zM530.901 893.184c-50.432-0.128-86.613-15.36-114.048-38.187-28.288-23.595-47.275-55.893-59.733-88.96-14.805-39.253-19.883-77.227-21.888-102.997l0.555 0.341c15.232 8.533 35.243 17.067 56.661 22.016 21.419 4.907 44.501 6.443 65.408-1.664s38.187-27.179 44.459-56.107c30.037-138.965-9.344-190.635-23.851-229.632-4.602-11.238-9.427-25.627-13.452-40.345l-0.671-2.876c1.835 0.427 3.669 0.939 5.504 1.109 10.24 0.853 18.261-2.56 23.040-4.608 14.592-6.059 24.619-18.773 30.037-33.28 1.408-3.797 2.432-7.893 3.029-12.117 0.546-1.457 0.863-3.141 0.863-4.898 0-0.183-0.003-0.365-0.010-0.547l0.001 0.026c-0.694-21.326-1.089-46.4-1.089-71.567 0-30.92 0.596-61.7 1.779-92.33l-0.135 4.409c0.981-22.955 2.432-43.179 4.267-59.136 1.835-15.915 4.437-28.032 6.101-32.128 5.461-13.653 13.44-31.531 27.861-43.691 14.421-12.117 35.115-20.224 72.917-12.117 32.768 7.040 52.992 16.811 66.517 30.848 13.483 14.037 21.547 33.579 26.709 63.488 7.723 44.8 23.253 174.72 25.131 199.168-0.853 18.432 1.877 32.597 7.765 43.392 6.059 11.093 15.445 17.877 23.552 21.547 4.053 1.835 7.851 3.072 10.965 3.968-3.793 5.439-7.198 9.955-10.746 14.351l0.378-0.484c-11.198 13.498-20.733 28.958-27.942 45.657l-0.474 1.233c-4.36 8.926-8.012 15.675-11.871 22.288l0.906-1.68c-5.675 10.24-12.843 23.040-20.352 37.419-15.019 28.8-31.36 63.701-39.851 97.707-8.448 33.963-9.685 69.12 11.989 93.909 19.2 22.016 52.907 31.147 103.509 26.027-1.493 4.48-2.389 8.192-4.907 14.165-12.359 28.736-27.244 53.519-44.954 75.971l0.538-0.707c-42.88 54.827-112.299 109.184-219.563 110.933zM247.509 890.965c-5.419 0-10.837-0.171-16.213-0.469-43.093-2.475-83.84-14.976-112.981-45.867-29.184-30.891-48.384-81.536-44.203-165.376 0.811-15.872 7.723-60.331 19.584-113.152 11.819-52.821 28.587-114.987 48.725-169.899 20.181-54.912 44.629-102.699 67.84-125.312 11.691-11.307 21.845-15.872 31.061-15.488 9.259 0.427 20.395 5.76 34.005 22.101 26.755 32.185 51.992 60.639 78.073 88.287l-0.846-0.905c-31.555 27.505-51.384 67.769-51.384 112.664 0 7.67 0.579 15.204 1.695 22.562l-0.103-0.826c4.395 31.531 4.992 61.013 4.48 84.309-0.512 22.699-2.133 37.803-2.133 47.232-0.004 0.121-0.006 0.263-0.006 0.405s0.002 0.285 0.006 0.426v-0.021 0.213l-0.043 0.256v0.043c0 0.065 0 0.142 0 0.218 0 51.601 9.259 101.040 26.207 146.745l-0.949-2.921c11.947 31.744 29.739 64 56.405 90.112-26.197 8.619-72.704 21.76-123.051 24.235-4.807 0.263-10.459 0.418-16.145 0.427h-0.026zM776.491 665.6c-28.971-0.384-45.227-7.851-53.76-17.621-12.075-13.867-13.227-38.187-5.717-68.139 7.467-29.995 22.912-63.531 37.419-91.392 7.253-13.952 14.293-26.496 19.968-36.693 5.717-10.24 9.899-17.493 12.459-23.68 2.347-5.717 4.949-10.752 7.595-15.445 11.221 23.68 13.227 46.933 12.075 71.168-1.493 29.995-8.448 60.672-7.424 91.733 1.152 36.309 8.32 59.947 8.96 88.021-9.476 1.296-20.433 2.040-31.563 2.048h-0.010zM425.173 660.693c-9.365-0.090-18.417-1.236-27.103-3.324l0.82 0.166c-18.652-4.603-35.038-11.175-50.199-19.674l1.004 0.517c-5.676-3.069-10.548-6.293-15.109-9.894l0.218 0.166-0.939-0.853c0.256-6.229 1.493-21.333 2.005-43.563 0.512-24.32-0.085-55.339-4.779-88.917-10.197-72.96 42.752-133.376 104.96-133.461 3.627 14.976 9.6 30.165 15.573 46.165 17.323 46.677 51.413 80.725 22.699 213.589-4.693 21.76-13.995 30.549-26.795 35.499-6.244 2.28-13.454 3.599-20.971 3.599-0.488 0-0.974-0.006-1.459-0.017l0.072 0.001zM762.965 651.989h2.133c2.816-0.085 5.419-0.384 7.68-0.939 2.304-0.512 4.267-1.28 5.888-2.347 1.652-1.035 2.827-2.7 3.193-4.65l0.007-0.043-0.043-0.341c0.006-0.126 0.009-0.273 0.009-0.421 0-1.975-0.559-3.819-1.527-5.383l0.025 0.044c-1.328-2.444-2.888-4.548-4.699-6.406l0.006 0.006c-4.22-4.635-9.893-7.882-16.295-9.020l-0.174-0.026c-0.907-0.116-1.956-0.182-3.020-0.182-5.421 0-10.442 1.714-14.551 4.629l0.078-0.053c-2.123 1.44-3.948 3.103-5.512 4.991l-0.035 0.043c-1.335 1.468-2.285 3.309-2.677 5.349l-0.011 0.070c-0.019 0.196-0.030 0.424-0.030 0.654 0 1.848 0.691 3.534 1.828 4.814l-0.006-0.007c1.383 1.566 3.039 2.854 4.899 3.797l0.093 0.043c4.096 2.304 9.643 4.011 15.915 4.949 2.347 0.341 4.651 0.512 6.827 0.427zM429.312 644.821c2.261 0 4.651-0.213 7.083-0.555 6.528-0.896 12.331-2.645 16.768-5.205 2.223-1.175 4.105-2.689 5.653-4.497l0.022-0.026c1.463-1.665 2.355-3.861 2.355-6.267 0-0.348-0.019-0.691-0.055-1.029l0.004 0.042c-0.438-2.56-1.577-4.8-3.209-6.58l0.009 0.010c-1.75-2.137-3.759-3.971-6.003-5.484l-0.098-0.063c-4.39-3.143-9.868-5.025-15.786-5.025-1.173 0-2.33 0.074-3.464 0.218l0.135-0.014c-7.152 1.205-13.331 4.706-17.898 9.704l-0.022 0.024c-1.947 2.020-3.623 4.322-4.955 6.833l-0.079 0.164c-1.137 1.796-1.812 3.982-1.812 6.326 0 0.432 0.023 0.858 0.068 1.278l-0.005-0.052c0.64 4.608 4.437 6.997 8.149 8.32 3.494 1.208 7.521 1.905 11.711 1.905 0.503 0 1.004-0.010 1.502-0.030l-0.071 0.002zM815.872 331.52l-0.128-0.043c-6.272-2.261-11.435-3.2-15.787-5.12-4.447-1.744-8.003-4.955-10.147-9.025l-0.051-0.105c-2.688-4.907-4.992-13.611-4.309-28.416 1.811-1.262 3.91-2.282 6.161-2.948l0.154-0.039c7.296-2.219 19.541-3.669 33.195-3.456 27.221 0.299 60.715 6.656 78.507 14.933 15.387 7.236 28.635 16.007 40.418 26.399l-0.184-0.159h-0.043c-59.435-12.288-93.013-9.003-113.621-0.512-5.419 2.272-10.093 5.124-14.26 8.567l0.095-0.076zM473.216 327.509h-0.896c-2.261-0.213-5.547-0.981-11.904-8.021-14.848-16.64-20.053-27.093-32.299-36.864-12.245-9.728-28.16-14.933-59.947-21.461-10.069-2.048-15.829-4.309-19.669-6.144 1.237-1.024 1.109-1.28 2.987-2.261 4.651-2.56 10.624-4.821 15.445-6.059 13.653-3.413 36.096-7.381 59.52-3.413 23.424 4.011 47.787 15.232 68.565 44.373 3.584 5.035 3.968 12.459 1.024 20.437-2.987 7.979-9.515 14.848-14.123 16.768-2.527 1.279-5.462 2.209-8.56 2.629l-0.144 0.016z" />
<glyph unicode="&#xe925;" glyph-name="postman" d="M577.152 955.776c-280.405 35.968-536.96-162.176-572.928-442.624-35.968-280.405 162.133-536.917 442.581-572.928 280.448-35.968 537.045 162.176 572.928 442.624 36.011 280.405-162.091 536.917-442.581 572.928zM682.581 636.416c-9.892-0.134-18.812-4.184-25.302-10.667v0l-189.995-189.995-40.533 40.533c187.264 186.709 221.013 188.501 255.829 160.128zM475.093 429.013l189.44 189.44c4.827 5.055 11.619 8.199 19.145 8.199 14.61 0 26.453-11.844 26.453-26.453 0-8.121-3.66-15.388-9.42-20.24l-0.040-0.033-200.491-176zM489.173 399.403l-46.933-10.155c-0.169-0.040-0.363-0.063-0.563-0.063-1.002 0-1.869 0.575-2.289 1.413l-0.007 0.015c-0.217 0.368-0.345 0.811-0.345 1.283 0 0.718 0.295 1.366 0.771 1.831v0l27.52 27.52zM369.579 418.987l50.005 50.005 37.504-37.461-84.437-18.176c-0.238-0.064-0.511-0.101-0.793-0.101-1.237 0-2.308 0.711-2.826 1.747l-0.008 0.018c-0.306 0.47-0.488 1.044-0.488 1.662 0 0.917 0.402 1.741 1.039 2.304l0.003 0.003zM214.016 160.512c-1.665 0.151-2.959 1.539-2.959 3.23 0 0.11 0.005 0.218 0.016 0.325l-0.001-0.013c0.086 0.772 0.429 1.451 0.939 1.963v0h0.085l40.363 40.363 52.139-52.139zM317.483 214.101c-3.151-1.653-5.263-4.901-5.263-8.643 0-0.809 0.099-1.595 0.285-2.347l-0.014 0.067 8.661-36.907c0.098-0.383 0.154-0.822 0.154-1.274 0-2.946-2.388-5.333-5.333-5.333-1.499 0-2.854 0.618-3.823 1.614l-0.001 0.001h-0.128l-52.395 52.437 160.512 160.341 77.653 16.768 37.291-37.291c-53.547-47.019-126.763-93.909-217.6-139.435zM542.72 360.363h-0.085l-35.797 35.797 200.491 176c1.85 1.648 3.514 3.42 5.010 5.33l0.067 0.089c-6.315-57.387-86.571-138.453-169.685-217.216zM698.752 635.989l-0.128 0.085c-13.99 14.055-22.639 33.437-22.639 54.839 0 42.934 34.805 77.739 77.739 77.739 19.012 0 36.43-6.825 49.937-18.158l-0.12 0.098-68.693-68.821c-0.928-0.92-1.502-2.196-1.502-3.605s0.574-2.685 1.502-3.605v0l53.205-53.205c-10.049-5.098-21.911-8.085-34.47-8.085-21.414 0-40.801 8.682-54.831 22.719v0zM808.747 635.989c-3.439-3.397-7.221-6.461-11.286-9.131l-0.277-0.171h-0.043l-51.499 51.499 65.408 65.408c28.203-30.72 27.179-78.165-2.304-107.605zM804.48 701.867c-1.535-1.122-2.52-2.916-2.52-4.94 0-0.627 0.095-1.232 0.27-1.802l-0.011 0.043c1.157-2.292 1.835-4.996 1.835-7.859 0-4.326-1.547-8.29-4.119-11.369l0.023 0.028c-0.807-1.010-1.295-2.305-1.295-3.714 0-1.897 0.885-3.588 2.264-4.682l0.012-0.009c0.979-0.773 2.223-1.25 3.577-1.28h0.007c1.813 0.017 3.431 0.838 4.515 2.124l0.007 0.009c4.245 5.072 6.823 11.666 6.823 18.861 0 4.805-1.149 9.341-3.188 13.349l0.077-0.168c-1.078 1.533-2.839 2.522-4.831 2.522-1.294 0-2.491-0.418-3.463-1.126l0.017 0.012z" />
<glyph unicode="&#xe926;" glyph-name="powershell" d="M989.056 828.715c24.235 0 39.381-19.755 33.792-44.16l-156.117-681.856c-5.547-24.405-29.739-44.16-53.973-44.16h-777.813c-24.235 0-39.381 19.755-33.792 44.16l156.117 681.856c5.547 24.405 29.739 44.16 53.973 44.16zM631.723 429.995c10.709 16.811 9.685 38.613-3.84 53.035l-238.677 253.909c-16.213 17.28-44.245 17.365-62.549 0.171s-19.968-45.099-3.755-62.336l198.912-211.627v-4.693l-316.587-229.248c-19.2-13.952-22.741-41.685-7.979-61.995s42.283-25.472 61.44-11.52l351.104 252.117c11.947 8.405 18.688 15.616 21.931 22.187zM512.427 242.304c-0.076 0.001-0.166 0.001-0.257 0.001-21.793 0-39.473-17.606-39.594-39.371v-0.011c0-21.76 17.835-39.381 39.851-39.381h189.141c0.076-0.001 0.166-0.001 0.257-0.001 21.793 0 39.473 17.606 39.594 39.371v0.011c-0.121 21.776-17.801 39.382-39.594 39.382-0.090 0-0.18 0-0.27-0.001h0.014z" />
<glyph unicode="&#xe927;" glyph-name="python" d="M610.56 952.32l38.4-8.533 31.147-11.093 25.173-12.8 19.2-13.653 14.507-14.507 10.667-14.507 6.827-14.080 4.267-12.8 1.707-11.093 0.853-8.533-0.427-5.547v-227.84l-2.133-26.88-5.547-23.467-8.96-19.627-11.093-16.213-12.8-13.227-14.080-10.667-14.933-8.107-14.933-5.973-14.080-4.267-12.8-2.987-11.093-1.707-8.96-0.853h-254.72l-29.44-2.133-25.173-5.973-21.333-9.387-17.493-11.52-14.080-13.653-11.52-14.933-8.533-15.36-6.4-15.787-4.267-14.933-2.987-13.653-1.707-11.52-0.853-8.96v-130.56h-95.147l-8.96 1.28-11.947 2.987-13.653 5.12-14.933 7.68-15.36 11.093-15.36 15.36-14.933 19.627-13.653 25.173-11.947 31.147-8.96 37.547-5.973 44.8-2.133 52.48 2.56 52.053 6.827 44.373 10.24 37.12 13.653 30.293 15.36 24.32 17.067 18.773 17.92 14.080 17.92 10.24 17.067 6.827 15.36 4.267 13.653 2.133 10.24 0.427h6.827l2.56-0.427h348.16v35.413h-249.173l-0.427 117.333-0.853 15.787 2.133 14.507 4.693 13.227 7.253 11.947 10.667 11.093 13.227 9.813 16.213 8.533 18.773 7.68 21.76 6.4 24.747 5.12 27.307 4.267 30.293 2.56 32.853 1.707 35.84 0.853 54.187-2.133zM341.76 867.84l-9.813-14.080-3.413-17.493 3.413-17.493 9.813-14.507 14.080-9.387 17.493-3.84 17.493 3.84 14.080 9.387 9.813 14.507 3.413 17.493-3.413 17.493-9.813 14.080-14.080 9.387-17.493 3.84-17.493-3.84zM900.267 699.307l11.947-2.56 13.653-5.12 14.933-7.68 15.36-11.52 15.36-14.933 14.933-20.053 13.653-25.173 11.947-31.147 8.96-37.547 5.973-44.373 2.133-52.48-2.56-52.48-6.827-44.373-10.24-36.693-13.653-30.293-15.36-24.32-17.067-19.2-17.92-14.080-17.92-10.24-17.067-6.827-15.36-3.84-13.653-2.133-10.24-0.853-6.827 0.427h-350.72v-34.987h249.173l0.427-117.76 0.853-15.36-2.133-14.507-4.693-13.227-7.253-12.373-10.667-10.667-13.227-10.24-16.213-8.533-18.773-7.253-21.76-6.4-24.747-5.547-27.307-3.84-30.293-2.987-32.853-1.707-35.84-0.427-54.187 1.707-45.653 5.973-38.4 8.533-31.147 10.667-25.173 12.8-19.2 14.080-14.507 14.507-10.667 14.507-6.827 14.080-4.267 12.8-1.707 10.667-0.853 8.533 0.427 5.547v227.84l2.133 27.307 5.547 23.040 8.96 19.627 11.093 16.213 12.8 13.653 14.080 10.24 14.933 8.533 14.933 5.973 14.080 4.267 12.8 2.56 11.093 1.707 8.96 0.853 5.547 0.427h249.173l29.44 2.133 25.173 5.973 21.333 8.96 17.493 11.947 14.080 13.653 11.52 14.933 8.533 15.36 6.4 15.36 4.267 14.933 2.987 13.653 1.707 11.947 0.853 8.96v130.56h89.173l5.973-0.427zM624.213 91.307l-9.813-14.080-3.413-17.493 3.413-17.493 9.813-14.080 14.080-9.813 17.493-3.413 17.493 3.413 14.080 9.813 9.813 14.080 3.413 17.493-3.413 17.493-9.813 14.080-14.080 9.813-17.493 3.413-17.493-3.413z" />
<glyph unicode="&#xe928;" glyph-name="redis" d="M1023.748 348.156c-0.427-9.771-13.355-20.693-39.893-34.56-54.656-28.459-337.749-144.896-397.995-176.299-60.288-31.403-93.739-31.104-141.355-8.32-47.616 22.741-348.843 144.469-403.115 170.368-27.093 12.971-40.917 23.893-41.387 34.219v-103.509c0-10.325 14.251-21.291 41.387-34.261 54.272-25.941 355.541-147.627 403.115-170.368 47.616-22.784 81.067-23.083 141.355 8.363 60.245 31.403 343.339 147.797 397.995 176.299 27.776 14.464 40.064 25.728 40.064 35.925 0 9.643 0.043 102.059 0.043 102.059-0.043 0.043-0.171 0.043-0.213 0.085zM1023.706 516.902c-0.469-9.771-13.355-20.651-39.851-34.517-54.656-28.459-337.749-144.896-397.995-176.299-60.288-31.403-93.739-31.104-141.355-8.363s-348.843 144.469-403.115 170.411c-27.093 12.928-40.917 23.893-41.387 34.176v-103.509c0-10.325 14.251-21.248 41.387-34.219 54.272-25.941 355.499-147.627 403.115-170.368 47.616-22.784 81.067-23.083 141.355 8.32 60.245 31.403 343.339 147.84 397.995 176.299 27.776 14.507 40.064 25.771 40.064 35.968 0 9.643 0.043 102.059 0.043 102.059-0.043 0.043-0.171 0-0.256 0.043zM1023.706 691.921c0.512 10.411-13.099 19.541-40.491 29.611-53.248 19.499-334.635 131.499-388.523 151.253-53.888 19.712-75.819 18.901-139.136-3.797-63.317-22.741-362.923-140.245-416.213-161.109-26.667-10.496-39.723-20.181-39.253-30.507v-103.509c0-10.325 14.251-21.248 41.387-34.219 54.272-25.941 355.499-147.669 403.115-170.411s81.067-23.040 141.355 8.363c60.245 31.403 343.339 147.84 397.995 176.299 27.776 14.507 40.064 25.771 40.064 35.968 0 9.6 0.043 102.059 0.043 102.059zM366.682 593.958l237.269 36.437-71.68-105.088zM891.439 688.593l-155.52-61.397-140.245 55.424 155.392 61.44zM479.492 790.268l-22.955 42.325 71.595-27.989 67.499 22.101-18.261-43.733 68.779-25.771-88.704-9.216-19.883-47.787-32.085 53.291-102.443 9.216zM302.724 730.577c70.059 0 126.805-22.016 126.805-49.152s-56.789-49.152-126.805-49.152-126.848 22.059-126.848 49.152c0 27.136 56.789 49.152 126.848 49.152z" />
<glyph unicode="&#xe929;" glyph-name="terraform" d="M353.408 778.027l317.141-161.109v-322.176l-317.141 161.109zM705.323 616.917v-322.176l317.269 161.109v322.176zM1.493 957.824v-322.176l317.141-161.109v322.176zM353.408 98.475l317.141-161.109v322.048l-317.141 161.109z" />
<glyph unicode="&#xe92a;" glyph-name="udemy" d="M1006.080 389.12c-3.308 2.818-7.331 4.898-11.756 5.936l-0.191 0.038c-25.6-26.027-57.6-53.333-85.333-71.68-13.227-8.533-29.867-12.8-40.533-12.8-25.173 0-35.84 23.467-38.827 61.44-4.679 55.455-7.347 120.018-7.347 185.204 0 7.339 0.034 14.67 0.101 21.993l-0.008-1.117c0 96.427-22.187 162.133-80.213 167.253l-7.68 0.427c-35.413 0-52.907-18.347-75.52-64.853-19.627-40.107-49.92-98.133-105.813-209.067-46.011-90.848-95.637-168.848-151.864-241.479l2.531 3.399c-13.227-16.213-23.467-27.307-33.28-34.133-5.257-3.644-11.745-5.862-18.746-5.973h-0.028c-18.347 0-32 15.36-36.267 51.627-1.089 8.459-1.71 18.245-1.71 28.175 0 0.445 0.001 0.889 0.004 1.333v-0.069c0 74.667 28.16 196.267 76.8 374.613 35.413 130.133 20.48 218.88-57.173 218.88h-1.28c-17.493 0-32-6.827-46.080-17.92-14.080-10.667-27.733-34.56-40.96-66.56-14.507-35.84-103.253-214.613-244.907-307.2-1.707-34.56 17.92-69.547 58.453-73.813 36.267-3.413 62.293 11.947 95.573 34.56l-6.827-31.147c-7.086-27.764-14.533-65.33-20.384-103.423l-0.949-7.51c-19.627-179.2 62.72-267.52 159.573-267.52 16.213 0 32.427 2.133 48.213 6.4 106.667 26.88 209.067 149.76 330.667 432.213-0.88-14.065-1.382-30.503-1.382-47.059 0-13.763 0.347-27.444 1.032-41.037l-0.077 1.909c8.107-162.133 71.68-210.347 162.133-210.347 68.267 0 131.84 35.413 164.267 79.787 20.209 25.521 32.749 57.929 33.702 93.227l0.005 0.213c-0.853 20.907-7.253 37.547-17.92 46.080z" />
<glyph unicode="&#xe92b;" glyph-name="visualstudiocode" d="M987.733 849.621l-210.773 101.419c-8.085 3.983-17.599 6.313-27.657 6.313-17.61 0-33.553-7.141-45.089-18.685v0l-403.627-368.213-175.787 133.461c-7.069 5.407-16.034 8.664-25.759 8.664-11.063 0-21.141-4.215-28.717-11.126l-56.372-51.255c-8.595-7.834-13.967-19.075-13.967-31.571 0-12.476 5.355-23.701 13.891-31.503l0.033-0.030 152.448-139.093-152.448-139.093c-8.569-7.831-13.924-19.057-13.924-31.533 0-12.496 5.372-23.738 13.933-31.541l0.034-0.030 56.448-51.243c7.543-6.881 17.621-11.096 28.684-11.096 9.725 0 18.689 3.257 25.861 8.739l-0.103-0.075 175.787 133.461 403.627-368.213c11.524-11.547 27.457-18.69 45.058-18.69 10.055 0 19.565 2.331 28.021 6.483l-0.375-0.166 210.859 101.419c21.585 10.592 36.181 32.41 36.181 57.638 0 0.017 0 0.033 0 0.050v-0.003 687.829c0 0.002 0 0.004 0 0.006 0 25.261-14.635 47.104-35.889 57.512l-0.378 0.167zM768.171 215.552l-306.261 232.448 306.261 232.448z" />
<glyph unicode="&#xe92c;" glyph-name="pypi" d="M1020.672 380.587v-166.912l-143.872-52.395-3.328-2.347 2.219-1.579 147.2 53.589 1.109 1.536v170.539l-2.261 1.536zM1007.829 720.299l-129.707-47.232v-166.912l142.464 51.84v166.955zM1020.587 385.835v166.955l-142.336-51.84v-166.955zM873.387 332.373v166.827l-140.8-51.2v-166.955zM726.784 106.837v166.912l-141.355-51.456v-166.912zM732.587 274.901v-165.035l141.397 51.456v165.077zM821.888 194.603c-15.659-5.717-28.288 3.157-28.288 19.755s12.629 34.731 28.288 40.405c15.573 5.675 28.245-3.2 28.245-19.797s-12.672-34.731-28.245-40.363zM564.267 562.56l15.573 5.632-140.16 51.072-141.781-51.627 4.352-1.579 135.851-49.493zM874.965 505.003v166.955l-142.379-51.797v-166.955zM727.808 451.499v166.955l-140.885-51.285v-166.912zM582.101 565.504l-142.336-51.84v-166.955l142.336 51.84zM294.699 398.293l141.739-51.584v166.955l-141.739 51.584zM441.173 624.085l139.989-50.901v165.035l-139.947 50.901zM874.965 844.16l-141.525-51.499v-166.955l141.525 51.499zM723.2 793.472l-137.643 50.048-139.477-50.773 137.6-50.091zM655.573 763.477l-69.291-25.259v-165.035l141.525 51.499v165.035zM638.891 644.949c-15.659-5.717-28.245 3.157-28.245 19.797s12.587 34.688 28.245 40.363c15.616 5.675 28.288-3.157 28.288-19.797s-12.672-34.688-28.288-40.363zM436.437 174.507v166.997l-141.739 51.584v-166.955zM583.595 226.901v166.955l-143.829-52.352v-166.955zM586.923 228.096l140.8 51.2v166.997l-140.8-51.2zM583.595 54.741l-143.829-52.352v166.912h-3.328v-166.912l-141.739 51.584v166.955l-2.261 2.475-1.067 2.56-142.336 51.627v168.448l1.451-0.555 140.245-51.029 0.64 3.328-139.136 50.645 139.093 50.645v4.651l-139.051 50.603 139.093 50.688v-37.419l3.371 2.347v101.248l138.965-50.56 2.475 2.603-138.283 50.347 138.24 50.304v3.541l-143.701-52.309v-0.768l-1.067-0.768v-64.981l-144.597-52.651v-0.853l-1.067-0.725v-170.965l-144.64-52.608v-0.811l-1.067-0.768v-170.453l1.067-1.579 145.067-52.779 0.341 0.256 0.299-0.427 145.067-52.821 0.341 0.256 0.256-0.427 145.067-52.779 0.597 0.384 0.512-0.427 147.2 53.589 1.109 1.579zM149.035 551.979l138.965-50.56-138.965-50.645zM145.067 108.373l-141.739 51.541v166.955l141.696-51.584zM145.707 278.613l-139.179 50.603 139.179 50.645zM290.731 55.424l-141.696 51.584v166.912l141.696-51.584zM1015.083 728.149l-136.96 49.92v-99.755zM869.845 847.232l-138.24 50.347-139.52-50.773 138.539-50.432z" />
<glyph unicode="&#xe92d;" glyph-name="tornado" d="M112.575 860.903c33.332 54.73 179.076 99.097 399.979 99.097s363.784-52.706 399.979-99.097c49.997-64.083-28.165-215.528-266.652-363.355-203.336-126.038-353.246-248.622-233.321-297.29 285.611-115.907 133.326-264.258 133.326-264.258s0 99.097-99.995 132.129c-169.029 55.837-233.321 99.097-299.984 165.161-50.429 49.976-104.7 207.715 66.663 363.355 85.273 77.449-163.945 159.253-99.995 264.258v0zM864 830.968c0 53.019-157.596 96-352 96s-352-42.981-352-96c0-53.019 157.596-96 352-96s352 42.981 352 96v0z" />
<glyph unicode="&#xe92e;" glyph-name="vue-dot-js" d="M1024 891.307h-424.107l-87.893-151.467-87.893 151.467h-424.107l512-886.613zM512 359.253l-291.84 505.6h189.013l102.827-178.347 102.827 178.347h189.013z" />
<glyph unicode="&#xe92f;" glyph-name="php" d="M299.093 524.501h-40.277l-21.973-112.981h35.755c23.723 0 41.387 4.48 52.992 13.397 11.605 8.96 19.413 23.851 23.467 44.757 3.925 20.053 2.133 34.219-5.291 42.453-7.467 8.235-22.315 12.373-44.672 12.373zM512 717.312c-282.752 0-512-120.576-512-269.312s229.248-269.355 512-269.355 512 120.619 512 269.355-229.248 269.312-512 269.312zM372.907 399.403c-11.136-10.667-24.533-18.688-39.125-23.509-14.336-4.608-32.64-6.997-54.827-6.997h-50.389l-13.952-71.723h-58.795l52.48 269.909h113.067c34.005 0 58.795-8.917 74.411-26.795 15.616-17.835 20.309-42.752 14.080-74.752-2.612-13.597-7.129-25.708-13.328-36.748l0.314 0.609c-6.101-10.88-14.080-20.907-23.936-29.995zM544.597 368.896l23.168 119.424c2.688 13.568 1.664 22.869-2.901 27.776-4.565 4.949-14.336 7.424-29.312 7.424h-46.592l-30.037-154.667h-58.368l52.48 269.952h58.325l-13.952-71.765h51.968c32.725 0 55.253-5.717 67.669-17.109s16.128-29.867 11.221-55.424l-24.405-125.611zM868.736 465.536c-2.567-13.593-7.088-25.709-13.321-36.73l0.308 0.591c-6.101-10.88-14.080-20.907-23.936-29.995-10.802-10.323-23.878-18.366-38.392-23.293l-0.733-0.216c-14.336-4.608-32.64-6.997-54.869-6.997h-50.347l-13.952-71.765h-58.795l52.48 269.909h113.024c34.005 0 58.795-8.917 74.411-26.795 15.616-17.792 20.352-42.709 14.123-74.709zM758.016 524.501h-40.235l-22.016-112.981h35.755c23.765 0 41.429 4.48 52.992 13.397 11.605 8.96 19.413 23.851 23.509 44.757 3.925 20.053 2.091 34.219-5.333 42.453s-22.357 12.373-44.672 12.373z" />
<glyph unicode="&#xe930;" glyph-name="android1" d="M1024 149.333h-1024c10.996 97.62 44.67 185.638 95.601 261.041l-1.308-2.054c40.353 61.72 92.677 112.273 154.028 149.415l19.626 11.012-86.187 145.493c-1.986 3.219-3.163 7.121-3.163 11.298 0 7.822 4.127 14.68 10.323 18.515l0.093 0.054c3.126 1.898 6.904 3.021 10.945 3.021 7.869 0 14.743-4.26 18.441-10.6l0.055-0.101 88.747-149.333c59.159 24.322 127.831 38.442 199.801 38.442 2.358 0 4.712-0.015 7.062-0.045l-0.356 0.004c1.888 0.025 4.118 0.039 6.351 0.039 70.774 0 138.25-14.125 199.761-39.709l-3.446 1.27 88.32 149.333c3.768 6.373 10.606 10.581 18.425 10.581 4.246 0 8.202-1.24 11.526-3.378l-0.085 0.051c6.114-3.921 10.107-10.683 10.107-18.377 0-4.256-1.222-8.226-3.334-11.58l0.053 0.090-86.187-145.92 21.333-11.947c63.108-39.707 115.018-91.482 153.705-152.471l1.175-1.982c46.839-71.889 79.601-157.201 92.224-248.938l0.363-3.222zM704 340.48c0-23.564 19.103-42.667 42.667-42.667v0c23.564 0 42.667 19.103 42.667 42.667v0c0 23.564-19.103 42.667-42.667 42.667v0c-23.564 0-42.667-19.103-42.667-42.667v0zM234.667 340.48c0-23.564 19.103-42.667 42.667-42.667v0c23.564 0 42.667 19.103 42.667 42.667v0c0 23.564-19.103 42.667-42.667 42.667v0c-23.564 0-42.667-19.103-42.667-42.667v0z" />
<glyph unicode="&#xe931;" glyph-name="forward" d="M574.752 577.472v318.528l449.248-448-449.248-448v321.344c-228.32 0-453.664-39.744-574.752-228.352 12.608 343.712 269.76 425.536 574.752 484.48z" />
<glyph unicode="&#xe932;" glyph-name="book" d="M544 128c0 0 198.016 65.984 352-57.984 0 1.984 0 57.984 0 57.984-180 100-352 0-352 0zM64 768v-636c0 0 86.016 62.016 208 62.016s208-62.016 208-62.016v628c0 0-86.016 72-208 72s-208-64-208-64zM128 704h128v-160h-128v160zM416 288h-288v32h288v-32zM416 352h-288v32h288v-32zM416 416h-288v32h288v-32zM416 480h-288v32h288v-32zM288 704h128v-32h-128v32zM288 640h128v-32h-128v32zM288 576h128v-32h-128v32zM720 832c-121.984 0-208-64-208-64v-636c0 0 86.016 62.016 208 62.016s208-62.016 208-62.016v628c0 0-86.016 72-208 72zM864 288h-288v32h288v-32zM864 352h-288v32h288v-32zM864 416h-288v32h288v-32zM864 480h-288v32h288v-32zM864 544h-288v32h288v-32zM864 608h-288v32h288v-32zM864 672h-288v32h288v-32zM96 128c0 0 0-56 0-57.984 153.984 123.968 352 57.984 352 57.984s-172 100-352 0z" />
<glyph unicode="&#xe933;" glyph-name="film" d="M928 960h-832c-17.664 0-32-14.336-32-32v-960c0-17.696 14.336-32 32-32h832c17.696 0 32 14.304 32 32v960c0 17.664-14.304 32-32 32zM160 64c-17.664 0-32 14.304-32 32s14.336 32 32 32 32-14.304 32-32-14.336-32-32-32zM160 192c-17.664 0-32 14.304-32 32s14.336 32 32 32 32-14.304 32-32-14.336-32-32-32zM160 320c-17.664 0-32 14.304-32 32s14.336 32 32 32 32-14.304 32-32-14.336-32-32-32zM160 448c-17.664 0-32 14.336-32 32s14.336 32 32 32 32-14.336 32-32-14.336-32-32-32zM160 576c-17.664 0-32 14.336-32 32s14.336 32 32 32 32-14.336 32-32-14.336-32-32-32zM160 704c-17.664 0-32 14.336-32 32s14.336 32 32 32 32-14.336 32-32-14.336-32-32-32zM160 832c-17.664 0-32 14.336-32 32s14.336 32 32 32 32-14.336 32-32-14.336-32-32-32zM768 32c0-17.696-14.304-32-32-32h-448c-17.664 0-32 14.304-32 32v320c0 17.696 14.336 32 32 32h448c17.696 0 32-14.304 32-32v-320zM768 480c0-17.664-14.304-32-32-32h-448c-17.664 0-32 14.336-32 32v384c0 17.664 14.336 32 32 32h448c17.696 0 32-14.336 32-32v-384zM864 64c-17.696 0-32 14.304-32 32s14.304 32 32 32 32-14.304 32-32-14.304-32-32-32zM864 192c-17.696 0-32 14.304-32 32s14.304 32 32 32 32-14.304 32-32-14.304-32-32-32zM864 320c-17.696 0-32 14.304-32 32s14.304 32 32 32 32-14.304 32-32-14.304-32-32-32zM864 448c-17.696 0-32 14.336-32 32s14.304 32 32 32 32-14.336 32-32-14.304-32-32-32zM864 576c-17.696 0-32 14.336-32 32s14.304 32 32 32 32-14.336 32-32-14.304-32-32-32zM864 704c-17.696 0-32 14.336-32 32s14.304 32 32 32 32-14.336 32-32-14.304-32-32-32zM864 832c-17.696 0-32 14.336-32 32s14.304 32 32 32 32-14.336 32-32-14.304-32-32-32z" />
<glyph unicode="&#xe934;" glyph-name="blogger" d="M937.643-64h-851.2c-48.043 0-86.443 38.4-86.443 86.357v851.2c0 48.043 38.4 86.443 86.4 86.443h854.4c44.8 0 83.2-38.4 83.2-86.4v-851.2c0-48-38.4-86.4-86.357-86.4zM512 790.4h-128c-118.4 0-214.4-96-214.4-214.4v-256c0-118.357 96-214.357 214.4-214.357h256c118.357 0 214.357 96 214.357 214.357v169.6c0 25.6-19.2 44.8-44.8 44.8h-41.557c-22.357 0-41.643 19.2-41.643 41.643 0 118.443-96 214.443-214.357 214.357zM643.157 278.4h-259.157c-22.4 0-41.6 19.2-41.6 41.6s19.2 41.643 41.6 41.643h259.157c22.443 0 41.685-19.2 41.685-41.643s-19.2-41.643-41.685-41.6zM534.357 617.6c22.485 0 41.643-19.2 41.643-41.6s-19.2-41.6-41.6-41.6h-153.6c-22.4 0-41.643 19.2-41.643 41.6s19.2 41.6 41.6 41.6z" />
<glyph unicode="&#xea7f;" glyph-name="embed" d="M576 224l96-96 320 320-320 320-96-96 224-224zM448 672l-96 96-320-320 320-320 96 96-224 224z" />
<glyph unicode="&#xea80;" glyph-name="embed2" horiz-adv-x="1280" d="M832 224l96-96 320 320-320 320-96-96 224-224zM448 672l-96 96-320-320 320-320 96 96-224 224zM701.298 809.481l69.468-18.944-191.987-704.026-69.468 18.944 191.987 704.026z" />
<glyph unicode="&#xeac0;" glyph-name="android" d="M896 576c-35.2 0-64-28.8-64-64v-256c0-35.2 28.8-64 64-64s64 28.8 64 64v256c0 35.2-28.8 64-64 64zM128 576c-35.2 0-64-28.8-64-64v-256c0-35.2 28.8-64 64-64s64 28.8 64 64v256c0 35.2-28.802 64-64 64zM224 224c0-53.020 42.98-96 96-96v0-128c0-35.2 28.8-64 64-64s64 28.8 64 64v128h128v-128c0-35.2 28.8-64 64-64s64 28.8 64 64v128c53.020 0 96 42.98 96 96v352h-576v-352zM798.216 639.998c-9.716 87.884-59.004 163.792-129.62 209.646l32.024 64.046c7.904 15.806 1.496 35.028-14.31 42.932s-35.030 1.496-42.932-14.312l-32.142-64.286-8.35 3.316c-28.568 9.502-59.122 14.66-90.886 14.66-31.762 0-62.316-5.158-90.888-14.656l-8.348-3.316-32.142 64.282c-7.904 15.808-27.128 22.212-42.932 14.312-15.808-7.904-22.214-27.126-14.312-42.932l32.022-64.046c-70.616-45.852-119.904-121.762-129.622-209.644v-32h574.222v31.998h-1.784zM416 704c-17.674 0-32 14.328-32 32 0 17.648 14.288 31.958 31.93 31.996 0.032 0 0.062-0.002 0.094-0.002 0.018 0 0.036 0.002 0.052 0.002 17.638-0.042 31.924-14.35 31.924-31.996 0-17.672-14.326-32-32-32zM608 704c-17.674 0-32 14.328-32 32 0 17.646 14.286 31.954 31.924 31.996 0.016 0 0.034-0.002 0.050-0.002 0.032 0 0.064 0.002 0.096 0.002 17.64-0.038 31.93-14.348 31.93-31.996 0-17.672-14.326-32-32-32z" />
<glyph unicode="&#xeac9;" glyph-name="linkedin" d="M928 960h-832c-52.8 0-96-43.2-96-96v-832c0-52.8 43.2-96 96-96h832c52.8 0 96 43.2 96 96v832c0 52.8-43.2 96-96 96zM384 128h-128v448h128v-448zM320 640c-35.4 0-64 28.6-64 64s28.6 64 64 64c35.4 0 64-28.6 64-64s-28.6-64-64-64zM832 128h-128v256c0 35.4-28.6 64-64 64s-64-28.6-64-64v-256h-128v448h128v-79.4c26.4 36.2 66.8 79.4 112 79.4 79.6 0 144-71.6 144-160v-288z" />
<glyph unicode="&#xf08c;" glyph-name="linkedin-square" horiz-adv-x="878" d="M135.429 142.857h132v396.571h-132v-396.571zM276 661.714c-0.571 38.857-28.571 68.571-73.714 68.571s-74.857-29.714-74.857-68.571c0-37.714 28.571-68.571 73.143-68.571h0.571c46.286 0 74.857 30.857 74.857 68.571zM610.286 142.857h132v227.429c0 121.714-65.143 178.286-152 178.286-70.857 0-102.286-39.429-119.429-66.857h1.143v57.714h-132s1.714-37.143 0-396.571v0h132v221.714c0 11.429 0.571 23.429 4 32 9.714 23.429 31.429 48 68 48 47.429 0 66.286-36 66.286-89.714v-212zM877.714 713.143v-548.571c0-90.857-73.714-164.571-164.571-164.571h-548.571c-90.857 0-164.571 73.714-164.571 164.571v548.571c0 90.857 73.714 164.571 164.571 164.571h548.571c90.857 0 164.571-73.714 164.571-164.571z" />
<glyph unicode="&#xf13b;" glyph-name="html5" horiz-adv-x="805" d="M645.714 609.714l9.143 100h-505.143l26.857-305.143h349.714l-12.571-130.286-112.571-30.286-112 30.286-7.429 80h-100l12.571-158.857 206.857-57.143h2.286v0.571l205.143 56.571 28.571 310.857h-368l-8.571 103.429h385.143zM0 877.714h804.571l-73.143-821.714-330.286-92.571-328 92.571z" />
<glyph unicode="&#xf1d2;" glyph-name="git-square" horiz-adv-x="878" d="M332.571 203.428c0-30.857-28-37.714-53.143-37.714-24.571 0-61.143 4-61.143 36 0 31.429 30.857 36.571 56 36.571 24 0 58.286-4 58.286-34.857zM312 469.714c0-28.571-11.429-48.571-42.286-48.571-31.429 0-44 18.286-44 48s11.429 51.429 44 51.429c29.143 0 42.286-24 42.286-50.857zM406.857 512.571v71.429c-24.571-9.143-50.857-16.571-77.143-16.571-18.857 10.857-40.571 16.571-62.857 16.571-65.143 0-116.571-48-116.571-114.286 0-35.429 23.429-84.571 58.857-96.571v-1.714c-18.286-8-21.714-30.286-21.714-48.571 0-18.857 6.857-34.286 23.429-44v-1.714c-38.857-12.571-64.571-37.143-64.571-79.429 0-72.571 69.143-93.143 129.714-93.143 73.143 0 128 26.857 128 107.429 0 57.143-52 74.286-99.429 82.857-16 2.857-43.429 14.286-43.429 34.286 0 18.857 10.286 26.857 28 29.714 58.286 11.429 95.429 56.571 95.429 116.571 0 10.286-2.286 20-5.714 29.714 9.143 2.286 18.857 4.571 28 7.429zM440.571 273.143h78.286c-1.143 15.429-1.143 31.429-1.143 46.857v221.143c0 13.143 0 26.286 1.143 39.429h-78.286c1.714-13.143 1.714-27.429 1.714-40.571v-224c0-14.286 0-28.571-1.714-42.857zM731.429 282.286v69.143c-11.429-8-25.143-12-38.857-12-25.714 0-30.286 25.714-30.286 46.857v128.571h29.714c10.286 0 20-1.143 30.286-1.143v66.857h-60c0 19.429-1.143 38.857 1.714 58.286h-80c1.714-10.286 2.286-20.571 2.286-31.429v-26.857h-34.286v-66.857c6.857 0.571 13.714 1.714 21.143 1.714 4 0 8.571-0.571 13.143-0.571v-1.143h-1.143v-124c0-61.714 9.143-121.143 84.571-121.143 21.143 0 42.857 3.429 61.714 13.714zM528 685.714c0 26.857-20 52-48 52s-48.571-24.571-48.571-52c0-26.857 21.143-50.857 48.571-50.857s48 24.571 48 50.857zM877.714 713.143v-548.571c0-90.857-73.714-164.571-164.571-164.571h-548.571c-90.857 0-164.571 73.714-164.571 164.571v548.571c0 90.857 73.714 164.571 164.571 164.571h548.571c90.857 0 164.571-73.714 164.571-164.571z" />
</font>
</defs>
</svg>
